<svg width="24" height="15" viewBox="0 0 24 15" fill="none" xmlns="http://www.w3.org/2000/svg">
<path d="M8.25 0H9V0.75H8.25V0Z" fill="#707070"/>
<path d="M7.5 0H8.25V0.75H7.5V0Z" fill="#707070"/>
<path d="M6.75 0H7.5V0.75H6.75V0Z" fill="#707070"/>
<path d="M6 0H6.75V0.75H6V0Z" fill="#707070"/>
<path d="M8.25 0.75H9V1.5H8.25V0.75Z" fill="#707070"/>
<path d="M7.5 0.75H8.25V1.5H7.5V0.75Z" fill="#707070"/>
<path d="M6.75 0.75H7.5V1.5H6.75V0.75Z" fill="#707070"/>
<path d="M6 0.75H6.75V1.5H6V0.75Z" fill="#707070"/>
<path d="M8.25 1.5H9V2.25H8.25V1.5Z" fill="#707070"/>
<path d="M7.5 1.5H8.25V2.25H7.5V1.5Z" fill="#707070"/>
<path d="M6.75 1.5H7.5V2.25H6.75V1.5Z" fill="#707070"/>
<path d="M6 1.5H6.75V2.25H6V1.5Z" fill="#707070"/>
<path d="M8.25 2.25H9V3H8.25V2.25Z" fill="#707070"/>
<path d="M7.5 2.25H8.25V3H7.5V2.25Z" fill="#707070"/>
<path d="M6.75 2.25H7.5V3H6.75V2.25Z" fill="#707070"/>
<path d="M6 2.25H6.75V3H6V2.25Z" fill="#707070"/>
<path d="M5.25 3H6V3.75H5.25V3Z" fill="#707070"/>
<path d="M4.5 3H5.25V3.75H4.5V3Z" fill="#707070"/>
<path d="M3.75 3H4.5V3.75H3.75V3Z" fill="#707070"/>
<path d="M3 3H3.75V3.75H3V3Z" fill="#707070"/>
<path d="M5.25 3.75H6V4.5H5.25V3.75Z" fill="#707070"/>
<path d="M4.5 3.75H5.25V4.5H4.5V3.75Z" fill="#707070"/>
<path d="M3.75 3.75H4.5V4.5H3.75V3.75Z" fill="#707070"/>
<path d="M3 3.75H3.75V4.5H3V3.75Z" fill="#707070"/>
<path d="M5.25 4.5H6V5.25H5.25V4.5Z" fill="#707070"/>
<path d="M4.5 4.5H5.25V5.25H4.5V4.5Z" fill="#707070"/>
<path d="M3.75 4.5H4.5V5.25H3.75V4.5Z" fill="#707070"/>
<path d="M3 4.5H3.75V5.25H3V4.5Z" fill="#707070"/>
<path d="M5.25 5.25H6V6H5.25V5.25Z" fill="#707070"/>
<path d="M4.5 5.25H5.25V6H4.5V5.25Z" fill="#707070"/>
<path d="M3.75 5.25H4.5V6H3.75V5.25Z" fill="#707070"/>
<path d="M3 5.25H3.75V6H3V5.25Z" fill="#707070"/>
<path d="M23.25 6H24V6.75H23.25V6Z" fill="#707070"/>
<path d="M22.5 6H23.25V6.75H22.5V6Z" fill="#707070"/>
<path d="M21.75 6H22.5V6.75H21.75V6Z" fill="#707070"/>
<path d="M21 6H21.75V6.75H21V6Z" fill="#707070"/>
<path d="M20.25 6H21V6.75H20.25V6Z" fill="#707070"/>
<path d="M19.5 6H20.25V6.75H19.5V6Z" fill="#707070"/>
<path d="M18.75 6H19.5V6.75H18.75V6Z" fill="#707070"/>
<path d="M18 6H18.75V6.75H18V6Z" fill="#707070"/>
<path d="M17.25 6H18V6.75H17.25V6Z" fill="#707070"/>
<path d="M16.5 6H17.25V6.75H16.5V6Z" fill="#707070"/>
<path d="M15.75 6H16.5V6.75H15.75V6Z" fill="#707070"/>
<path d="M15 6H15.75V6.75H15V6Z" fill="#707070"/>
<path d="M14.25 6H15V6.75H14.25V6Z" fill="#707070"/>
<path d="M13.5 6H14.25V6.75H13.5V6Z" fill="#707070"/>
<path d="M12.75 6H13.5V6.75H12.75V6Z" fill="#707070"/>
<path d="M12 6H12.75V6.75H12V6Z" fill="#707070"/>
<path d="M11.25 6H12V6.75H11.25V6Z" fill="#707070"/>
<path d="M10.5 6H11.25V6.75H10.5V6Z" fill="#707070"/>
<path d="M9.75 6H10.5V6.75H9.75V6Z" fill="#707070"/>
<path d="M9 6H9.75V6.75H9V6Z" fill="#707070"/>
<path d="M8.25 6H9V6.75H8.25V6Z" fill="#707070"/>
<path d="M7.5 6H8.25V6.75H7.5V6Z" fill="#707070"/>
<path d="M6.75 6H7.5V6.75H6.75V6Z" fill="#707070"/>
<path d="M6 6H6.75V6.75H6V6Z" fill="#707070"/>
<path d="M5.25 6H6V6.75H5.25V6Z" fill="#707070"/>
<path d="M4.5 6H5.25V6.75H4.5V6Z" fill="#707070"/>
<path d="M3.75 6H4.5V6.75H3.75V6Z" fill="#707070"/>
<path d="M3 6H3.75V6.75H3V6Z" fill="#707070"/>
<path d="M2.25 6H3V6.75H2.25V6Z" fill="#707070"/>
<path d="M1.5 6H2.25V6.75H1.5V6Z" fill="#707070"/>
<path d="M0.75 6H1.5V6.75H0.75V6Z" fill="#707070"/>
<path d="M0 6H0.75V6.75H0V6Z" fill="#707070"/>
<path d="M23.25 6.75H24V7.5H23.25V6.75Z" fill="#707070"/>
<path d="M22.5 6.75H23.25V7.5H22.5V6.75Z" fill="#707070"/>
<path d="M21.75 6.75H22.5V7.5H21.75V6.75Z" fill="#707070"/>
<path d="M21 6.75H21.75V7.5H21V6.75Z" fill="#707070"/>
<path d="M20.25 6.75H21V7.5H20.25V6.75Z" fill="#707070"/>
<path d="M19.5 6.75H20.25V7.5H19.5V6.75Z" fill="#707070"/>
<path d="M18.75 6.75H19.5V7.5H18.75V6.75Z" fill="#707070"/>
<path d="M18 6.75H18.75V7.5H18V6.75Z" fill="#707070"/>
<path d="M17.25 6.75H18V7.5H17.25V6.75Z" fill="#707070"/>
<path d="M16.5 6.75H17.25V7.5H16.5V6.75Z" fill="#707070"/>
<path d="M15.75 6.75H16.5V7.5H15.75V6.75Z" fill="#707070"/>
<path d="M15 6.75H15.75V7.5H15V6.75Z" fill="#707070"/>
<path d="M14.25 6.75H15V7.5H14.25V6.75Z" fill="#707070"/>
<path d="M13.5 6.75H14.25V7.5H13.5V6.75Z" fill="#707070"/>
<path d="M12.75 6.75H13.5V7.5H12.75V6.75Z" fill="#707070"/>
<path d="M12 6.75H12.75V7.5H12V6.75Z" fill="#707070"/>
<path d="M11.25 6.75H12V7.5H11.25V6.75Z" fill="#707070"/>
<path d="M10.5 6.75H11.25V7.5H10.5V6.75Z" fill="#707070"/>
<path d="M9.75 6.75H10.5V7.5H9.75V6.75Z" fill="#707070"/>
<path d="M9 6.75H9.75V7.5H9V6.75Z" fill="#707070"/>
<path d="M8.25 6.75H9V7.5H8.25V6.75Z" fill="#707070"/>
<path d="M7.5 6.75H8.25V7.5H7.5V6.75Z" fill="#707070"/>
<path d="M6.75 6.75H7.5V7.5H6.75V6.75Z" fill="#707070"/>
<path d="M6 6.75H6.75V7.5H6V6.75Z" fill="#707070"/>
<path d="M5.25 6.75H6V7.5H5.25V6.75Z" fill="#707070"/>
<path d="M4.5 6.75H5.25V7.5H4.5V6.75Z" fill="#707070"/>
<path d="M3.75 6.75H4.5V7.5H3.75V6.75Z" fill="#707070"/>
<path d="M3 6.75H3.75V7.5H3V6.75Z" fill="#707070"/>
<path d="M2.25 6.75H3V7.5H2.25V6.75Z" fill="#707070"/>
<path d="M1.5 6.75H2.25V7.5H1.5V6.75Z" fill="#707070"/>
<path d="M0.75 6.75H1.5V7.5H0.75V6.75Z" fill="#707070"/>
<path d="M0 6.75H0.75V7.5H0V6.75Z" fill="#707070"/>
<path d="M23.25 7.5H24V8.25H23.25V7.5Z" fill="#707070"/>
<path d="M22.5 7.5H23.25V8.25H22.5V7.5Z" fill="#707070"/>
<path d="M21.75 7.5H22.5V8.25H21.75V7.5Z" fill="#707070"/>
<path d="M21 7.5H21.75V8.25H21V7.5Z" fill="#707070"/>
<path d="M20.25 7.5H21V8.25H20.25V7.5Z" fill="#707070"/>
<path d="M19.5 7.5H20.25V8.25H19.5V7.5Z" fill="#707070"/>
<path d="M18.75 7.5H19.5V8.25H18.75V7.5Z" fill="#707070"/>
<path d="M18 7.5H18.75V8.25H18V7.5Z" fill="#707070"/>
<path d="M17.25 7.5H18V8.25H17.25V7.5Z" fill="#707070"/>
<path d="M16.5 7.5H17.25V8.25H16.5V7.5Z" fill="#707070"/>
<path d="M15.75 7.5H16.5V8.25H15.75V7.5Z" fill="#707070"/>
<path d="M15 7.5H15.75V8.25H15V7.5Z" fill="#707070"/>
<path d="M14.25 7.5H15V8.25H14.25V7.5Z" fill="#707070"/>
<path d="M13.5 7.5H14.25V8.25H13.5V7.5Z" fill="#707070"/>
<path d="M12.75 7.5H13.5V8.25H12.75V7.5Z" fill="#707070"/>
<path d="M12 7.5H12.75V8.25H12V7.5Z" fill="#707070"/>
<path d="M11.25 7.5H12V8.25H11.25V7.5Z" fill="#707070"/>
<path d="M10.5 7.5H11.25V8.25H10.5V7.5Z" fill="#707070"/>
<path d="M9.75 7.5H10.5V8.25H9.75V7.5Z" fill="#707070"/>
<path d="M9 7.5H9.75V8.25H9V7.5Z" fill="#707070"/>
<path d="M8.25 7.5H9V8.25H8.25V7.5Z" fill="#707070"/>
<path d="M7.5 7.5H8.25V8.25H7.5V7.5Z" fill="#707070"/>
<path d="M6.75 7.5H7.5V8.25H6.75V7.5Z" fill="#707070"/>
<path d="M6 7.5H6.75V8.25H6V7.5Z" fill="#707070"/>
<path d="M5.25 7.5H6V8.25H5.25V7.5Z" fill="#707070"/>
<path d="M4.5 7.5H5.25V8.25H4.5V7.5Z" fill="#707070"/>
<path d="M3.75 7.5H4.5V8.25H3.75V7.5Z" fill="#707070"/>
<path d="M3 7.5H3.75V8.25H3V7.5Z" fill="#707070"/>
<path d="M2.25 7.5H3V8.25H2.25V7.5Z" fill="#707070"/>
<path d="M1.5 7.5H2.25V8.25H1.5V7.5Z" fill="#707070"/>
<path d="M0.75 7.5H1.5V8.25H0.75V7.5Z" fill="#707070"/>
<path d="M0 7.5H0.75V8.25H0V7.5Z" fill="#707070"/>
<path d="M23.25 8.25H24V9H23.25V8.25Z" fill="#707070"/>
<path d="M22.5 8.25H23.25V9H22.5V8.25Z" fill="#707070"/>
<path d="M21.75 8.25H22.5V9H21.75V8.25Z" fill="#707070"/>
<path d="M21 8.25H21.75V9H21V8.25Z" fill="#707070"/>
<path d="M20.25 8.25H21V9H20.25V8.25Z" fill="#707070"/>
<path d="M19.5 8.25H20.25V9H19.5V8.25Z" fill="#707070"/>
<path d="M18.75 8.25H19.5V9H18.75V8.25Z" fill="#707070"/>
<path d="M18 8.25H18.75V9H18V8.25Z" fill="#707070"/>
<path d="M17.25 8.25H18V9H17.25V8.25Z" fill="#707070"/>
<path d="M16.5 8.25H17.25V9H16.5V8.25Z" fill="#707070"/>
<path d="M15.75 8.25H16.5V9H15.75V8.25Z" fill="#707070"/>
<path d="M15 8.25H15.75V9H15V8.25Z" fill="#707070"/>
<path d="M14.25 8.25H15V9H14.25V8.25Z" fill="#707070"/>
<path d="M13.5 8.25H14.25V9H13.5V8.25Z" fill="#707070"/>
<path d="M12.75 8.25H13.5V9H12.75V8.25Z" fill="#707070"/>
<path d="M12 8.25H12.75V9H12V8.25Z" fill="#707070"/>
<path d="M11.25 8.25H12V9H11.25V8.25Z" fill="#707070"/>
<path d="M10.5 8.25H11.25V9H10.5V8.25Z" fill="#707070"/>
<path d="M9.75 8.25H10.5V9H9.75V8.25Z" fill="#707070"/>
<path d="M9 8.25H9.75V9H9V8.25Z" fill="#707070"/>
<path d="M8.25 8.25H9V9H8.25V8.25Z" fill="#707070"/>
<path d="M7.5 8.25H8.25V9H7.5V8.25Z" fill="#707070"/>
<path d="M6.75 8.25H7.5V9H6.75V8.25Z" fill="#707070"/>
<path d="M6 8.25H6.75V9H6V8.25Z" fill="#707070"/>
<path d="M5.25 8.25H6V9H5.25V8.25Z" fill="#707070"/>
<path d="M4.5 8.25H5.25V9H4.5V8.25Z" fill="#707070"/>
<path d="M3.75 8.25H4.5V9H3.75V8.25Z" fill="#707070"/>
<path d="M3 8.25H3.75V9H3V8.25Z" fill="#707070"/>
<path d="M2.25 8.25H3V9H2.25V8.25Z" fill="#707070"/>
<path d="M1.5 8.25H2.25V9H1.5V8.25Z" fill="#707070"/>
<path d="M0.75 8.25H1.5V9H0.75V8.25Z" fill="#707070"/>
<path d="M0 8.25H0.75V9H0V8.25Z" fill="#707070"/>
<path d="M5.25 9H6V9.75H5.25V9Z" fill="#707070"/>
<path d="M4.5 9H5.25V9.75H4.5V9Z" fill="#707070"/>
<path d="M3.75 9H4.5V9.75H3.75V9Z" fill="#707070"/>
<path d="M3 9H3.75V9.75H3V9Z" fill="#707070"/>
<path d="M5.25 9.75H6V10.5H5.25V9.75Z" fill="#707070"/>
<path d="M4.5 9.75H5.25V10.5H4.5V9.75Z" fill="#707070"/>
<path d="M3.75 9.75H4.5V10.5H3.75V9.75Z" fill="#707070"/>
<path d="M3 9.75H3.75V10.5H3V9.75Z" fill="#707070"/>
<path d="M5.25 10.5H6V11.25H5.25V10.5Z" fill="#707070"/>
<path d="M4.5 10.5H5.25V11.25H4.5V10.5Z" fill="#707070"/>
<path d="M3.75 10.5H4.5V11.25H3.75V10.5Z" fill="#707070"/>
<path d="M3 10.5H3.75V11.25H3V10.5Z" fill="#707070"/>
<path d="M5.25 11.25H6V12H5.25V11.25Z" fill="#707070"/>
<path d="M4.5 11.25H5.25V12H4.5V11.25Z" fill="#707070"/>
<path d="M3.75 11.25H4.5V12H3.75V11.25Z" fill="#707070"/>
<path d="M3 11.25H3.75V12H3V11.25Z" fill="#707070"/>
<path d="M8.25 12H9V12.75H8.25V12Z" fill="#707070"/>
<path d="M7.5 12H8.25V12.75H7.5V12Z" fill="#707070"/>
<path d="M6.75 12H7.5V12.75H6.75V12Z" fill="#707070"/>
<path d="M6 12H6.75V12.75H6V12Z" fill="#707070"/>
<path d="M8.25 12.75H9V13.5H8.25V12.75Z" fill="#707070"/>
<path d="M7.5 12.75H8.25V13.5H7.5V12.75Z" fill="#707070"/>
<path d="M6.75 12.75H7.5V13.5H6.75V12.75Z" fill="#707070"/>
<path d="M6 12.75H6.75V13.5H6V12.75Z" fill="#707070"/>
<path d="M8.25 13.5H9V14.25H8.25V13.5Z" fill="#707070"/>
<path d="M7.5 13.5H8.25V14.25H7.5V13.5Z" fill="#707070"/>
<path d="M6.75 13.5H7.5V14.25H6.75V13.5Z" fill="#707070"/>
<path d="M6 13.5H6.75V14.25H6V13.5Z" fill="#707070"/>
<path d="M8.25 14.25H9V15H8.25V14.25Z" fill="#707070"/>
<path d="M7.5 14.25H8.25V15H7.5V14.25Z" fill="#707070"/>
<path d="M6.75 14.25H7.5V15H6.75V14.25Z" fill="#707070"/>
<path d="M6 14.25H6.75V15H6V14.25Z" fill="#707070"/>
</svg>
