<svg width="560" height="50" viewBox="0 0 560 50" fill="none" xmlns="http://www.w3.org/2000/svg">
<mask id="path-1-inside-1_4643_14" fill="white">
<path fill-rule="evenodd" clip-rule="evenodd" d="M2.43153 22.2883C0.902175 23.4197 0 25.2094 0 27.1118V44C0 47.3137 2.68629 50 6 50H524.138C525.423 50 526.674 49.5876 527.707 48.8235L557.568 26.7316C559.098 25.6001 560 23.8105 560 21.9081V6C560 2.68629 557.314 0 554 0H34.5366C33.2518 0 32.001 0.412402 30.9681 1.17652L2.43153 22.2883ZM559.937 50C559.876 50 559.85 49.9221 559.899 49.8857V49.8857C559.941 49.8548 560 49.8846 560 49.9367V49.9367C560 49.9716 559.972 50 559.937 50V50Z"/>
</mask>
<path d="M30.9681 1.17652L31.5629 1.98043L30.9681 1.17652ZM557.568 26.7316L556.974 25.9276L557.568 26.7316ZM527.707 48.8235L528.302 49.6274L527.707 48.8235ZM-1 27.1118V44H1V27.1118H-1ZM6 51H524.138V49H6V51ZM528.302 49.6274L558.163 27.5355L556.974 25.9276L527.112 48.0196L528.302 49.6274ZM561 21.9081V6H559V21.9081H561ZM554 -1H34.5366V1H554V-1ZM30.3734 0.372605L1.83678 21.4844L3.02627 23.0922L31.5629 1.98043L30.3734 0.372605ZM559 49.9367C559 49.4194 559.419 49 559.937 49V51C560.524 51 561 50.5239 561 49.9367H559ZM559.304 49.0818C558.48 49.6917 558.911 51 559.937 51V49C560.84 49 561.22 50.1524 560.494 50.6896L559.304 49.0818ZM560.494 50.6896C559.875 51.147 559 50.7057 559 49.9367H561C561 49.0636 560.006 48.5626 559.304 49.0818L560.494 50.6896ZM34.5366 -1C33.0377 -1 31.5784 -0.518866 30.3734 0.372605L31.5629 1.98043C32.4236 1.34367 33.466 1 34.5366 1V-1ZM561 6C561 2.13401 557.866 -1 554 -1V1C556.761 1 559 3.23858 559 6H561ZM558.163 27.5355C559.947 26.2155 561 24.1275 561 21.9081H559C559 23.4934 558.248 24.9848 556.974 25.9276L558.163 27.5355ZM524.138 51C525.637 51 527.097 50.5189 528.302 49.6274L527.112 48.0196C526.252 48.6563 525.209 49 524.138 49V51ZM-1 44C-1 47.866 2.13401 51 6 51V49C3.23858 49 1 46.7614 1 44H-1ZM1 27.1118C1 25.5264 1.75181 24.0351 3.02627 23.0922L1.83678 21.4844C0.0525372 22.8044 -1 24.8923 -1 27.1118H1Z" fill="#FEFEFE" mask="url(#path-1-inside-1_4643_14)"/>
</svg>
