<svg width="100%" height="50" viewBox="0 0 670 50" fill="none" xmlns="http://www.w3.org/2000/svg" preserveaspectratio='none'>
<path fill-rule="evenodd" clip-rule="evenodd" d="M2.43153 22.2883C0.902175 23.4197 0 25.2094 0 27.1118V44C0 47.3137 2.68629 50 6 50H634.139C635.424 50 636.674 49.5876 637.707 48.8235L667.568 26.7318C669.098 25.6004 670 23.8107 670 21.9083V5.99999C670 2.68629 667.314 0 664 0H34.5366C33.2519 0 32.001 0.412402 30.9681 1.17652L2.43153 22.2883ZM669.937 50C669.876 50 669.85 49.9222 669.899 49.8859C669.941 49.855 670 49.8848 670 49.9367C670 49.9717 669.972 50 669.937 50Z" fill="#FEFEFE"/>
</svg>
