<svg width="700" height="50" viewBox="0 0 700 50" fill="none" xmlns="http://www.w3.org/2000/svg">
<mask id="path-1-inside-1_4643_24" fill="white">
<path fill-rule="evenodd" clip-rule="evenodd" d="M2.43153 22.2883C0.902175 23.4197 0 25.2094 0 27.1118V44C0 47.3137 2.68629 50 6 50H664.139C665.423 50 666.674 49.5876 667.707 48.8235L697.568 26.7316C699.098 25.6001 700 23.8105 700 21.9081V6C700 2.68629 697.314 0 694 0H34.5366C33.2519 0 32.001 0.412402 30.9681 1.17652L2.43153 22.2883ZM699.937 50C699.876 50 699.85 49.9221 699.899 49.8857V49.8857C699.941 49.8548 700 49.8846 700 49.9367V49.9367C700 49.9716 699.972 50 699.937 50V50Z"/>
</mask>
<path d="M30.9681 1.17652L31.5629 1.98043L30.9681 1.17652ZM697.568 26.7316L696.974 25.9276L697.568 26.7316ZM667.707 48.8235L668.302 49.6274L667.707 48.8235ZM-1 27.1118V44H1V27.1118H-1ZM6 51H664.139V49H6V51ZM668.302 49.6274L698.163 27.5355L696.974 25.9276L667.112 48.0196L668.302 49.6274ZM701 21.9081V6H699V21.9081H701ZM694 -1H34.5366V1H694V-1ZM30.3734 0.372605L1.83678 21.4844L3.02627 23.0922L31.5629 1.98043L30.3734 0.372605ZM699 49.9367C699 49.4194 699.419 49 699.937 49V51C700.524 51 701 50.5239 701 49.9367H699ZM699.304 49.0818C698.48 49.6917 698.911 51 699.937 51V49C700.84 49 701.22 50.1524 700.494 50.6896L699.304 49.0818ZM700.494 50.6896C699.875 51.147 699 50.7057 699 49.9367H701C701 49.0636 700.006 48.5626 699.304 49.0818L700.494 50.6896ZM34.5366 -1C33.0377 -1 31.5784 -0.518869 30.3734 0.372605L31.5629 1.98043C32.4236 1.34367 33.466 1 34.5366 1V-1ZM701 6C701 2.13401 697.866 -1 694 -1V1C696.761 1 699 3.23858 699 6H701ZM698.163 27.5355C699.947 26.2155 701 24.1275 701 21.9081H699C699 23.4934 698.248 24.9848 696.974 25.9276L698.163 27.5355ZM664.139 51C665.637 51 667.097 50.5189 668.302 49.6274L667.112 48.0196C666.252 48.6563 665.209 49 664.139 49V51ZM-1 44C-1 47.866 2.13401 51 6 51V49C3.23858 49 1 46.7614 1 44H-1ZM1 27.1118C1 25.5264 1.75181 24.0351 3.02627 23.0922L1.83678 21.4844C0.0525372 22.8044 -1 24.8923 -1 27.1118H1Z" fill="#FEFEFE" mask="url(#path-1-inside-1_4643_24)"/>
</svg>
