<svg width="775" height="50" viewBox="0 0 775 50" fill="none" xmlns="http://www.w3.org/2000/svg">
<mask id="path-1-inside-1_4643_34" fill="white">
<path fill-rule="evenodd" clip-rule="evenodd" d="M2.43153 22.2883C0.902175 23.4197 0 25.2094 0 27.1118V44C0 47.3137 2.68629 50 6 50H739.138C740.423 50 741.674 49.5876 742.707 48.8235L772.568 26.7316C774.098 25.6001 775 23.8105 775 21.9081V6C775 2.68629 772.314 0 769 0H34.5366C33.2518 0 32.001 0.412402 30.9681 1.17652L2.43153 22.2883ZM774.937 50C774.876 50 774.85 49.9221 774.899 49.8857V49.8857C774.941 49.8548 775 49.8846 775 49.9367V49.9367C775 49.9716 774.972 50 774.937 50V50Z"/>
</mask>
<path d="M30.9681 1.17652L31.5629 1.98043L30.9681 1.17652ZM772.568 26.7316L771.974 25.9276L772.568 26.7316ZM742.707 48.8235L743.302 49.6274L742.707 48.8235ZM-1 27.1118V44H1V27.1118H-1ZM6 51H739.138V49H6V51ZM743.302 49.6274L773.163 27.5355L771.974 25.9276L742.112 48.0196L743.302 49.6274ZM776 21.9081V6H774V21.9081H776ZM769 -1H34.5366V1H769V-1ZM30.3734 0.372605L1.83678 21.4844L3.02627 23.0922L31.5629 1.98043L30.3734 0.372605ZM774 49.9367C774 49.4194 774.419 49 774.937 49V51C775.524 51 776 50.5239 776 49.9367H774ZM774.304 49.0818C773.48 49.6917 773.911 51 774.937 51V49C775.84 49 776.22 50.1524 775.494 50.6896L774.304 49.0818ZM775.494 50.6896C774.875 51.147 774 50.7057 774 49.9367H776C776 49.0636 775.006 48.5626 774.304 49.0818L775.494 50.6896ZM34.5366 -1C33.0377 -1 31.5784 -0.518865 30.3734 0.372605L31.5629 1.98043C32.4236 1.34367 33.466 1 34.5366 1V-1ZM776 6C776 2.13401 772.866 -1 769 -1V1C771.761 1 774 3.23858 774 6H776ZM773.163 27.5355C774.947 26.2155 776 24.1275 776 21.9081H774C774 23.4934 773.248 24.9848 771.974 25.9276L773.163 27.5355ZM739.138 51C740.637 51 742.097 50.5189 743.302 49.6274L742.112 48.0196C741.252 48.6563 740.209 49 739.138 49V51ZM-1 44C-1 47.866 2.13401 51 6 51V49C3.23858 49 1 46.7614 1 44H-1ZM1 27.1118C1 25.5264 1.75181 24.0351 3.02627 23.0922L1.83678 21.4844C0.0525372 22.8044 -1 24.8923 -1 27.1118H1Z" fill="#FEFEFE" mask="url(#path-1-inside-1_4643_34)"/>
</svg>
