<svg width="850" height="50" viewBox="0 0 850 50" fill="none" xmlns="http://www.w3.org/2000/svg">
<path fill-rule="evenodd" clip-rule="evenodd" d="M2.43153 22.2883C0.902175 23.4197 0 25.2094 0 27.1118V44C0 47.3137 2.68629 50 6 50H814.138C815.423 50 816.674 49.5876 817.707 48.8235L847.568 26.7316C849.098 25.6001 850 23.8105 850 21.9081V6C850 2.68629 847.314 0 844 0H34.5366C33.2518 0 32.001 0.412402 30.9681 1.17652L2.43153 22.2883ZM849.937 50C849.876 50 849.85 49.9221 849.899 49.8857V49.8857C849.941 49.8548 850 49.8846 850 49.9367V49.9367C850 49.9716 849.972 50 849.937 50V50Z" fill="#FEFEFE"/>
</svg>
