<svg width="850" height="50" viewBox="0 0 850 50" fill="none" xmlns="http://www.w3.org/2000/svg">
<mask id="path-1-inside-1_4643_44" fill="white">
<path fill-rule="evenodd" clip-rule="evenodd" d="M2.43153 22.2883C0.902175 23.4197 0 25.2094 0 27.1118V44C0 47.3137 2.68629 50 6 50H814.138C815.423 50 816.674 49.5876 817.707 48.8235L847.568 26.7316C849.098 25.6001 850 23.8105 850 21.9081V6C850 2.68629 847.314 0 844 0H34.5366C33.2518 0 32.001 0.412402 30.9681 1.17652L2.43153 22.2883ZM849.937 50C849.876 50 849.85 49.9221 849.899 49.8857V49.8857C849.941 49.8548 850 49.8846 850 49.9367V49.9367C850 49.9716 849.972 50 849.937 50V50Z"/>
</mask>
<path d="M30.9681 1.17652L31.5629 1.98043L30.9681 1.17652ZM847.568 26.7316L846.974 25.9276L847.568 26.7316ZM817.707 48.8235L818.302 49.6274L817.707 48.8235ZM-1 27.1118V44H1V27.1118H-1ZM6 51H814.138V49H6V51ZM818.302 49.6274L848.163 27.5355L846.974 25.9276L817.112 48.0196L818.302 49.6274ZM851 21.9081V6H849V21.9081H851ZM844 -1H34.5366V1H844V-1ZM30.3734 0.372605L1.83678 21.4844L3.02627 23.0922L31.5629 1.98043L30.3734 0.372605ZM849 49.9367C849 49.4194 849.419 49 849.937 49V51C850.524 51 851 50.5239 851 49.9367H849ZM849.304 49.0818C848.48 49.6917 848.911 51 849.937 51V49C850.84 49 851.22 50.1524 850.494 50.6896L849.304 49.0818ZM850.494 50.6896C849.875 51.147 849 50.7057 849 49.9367H851C851 49.0636 850.006 48.5626 849.304 49.0818L850.494 50.6896ZM34.5366 -1C33.0377 -1 31.5784 -0.518867 30.3734 0.372605L31.5629 1.98043C32.4236 1.34367 33.466 1 34.5366 1V-1ZM851 6C851 2.13401 847.866 -1 844 -1V1C846.761 1 849 3.23858 849 6H851ZM848.163 27.5355C849.947 26.2155 851 24.1275 851 21.9081H849C849 23.4934 848.248 24.9848 846.974 25.9276L848.163 27.5355ZM814.138 51C815.637 51 817.097 50.5189 818.302 49.6274L817.112 48.0196C816.252 48.6563 815.209 49 814.138 49V51ZM-1 44C-1 47.866 2.13401 51 6 51V49C3.23858 49 1 46.7614 1 44H-1ZM1 27.1118C1 25.5264 1.75181 24.0351 3.02627 23.0922L1.83678 21.4844C0.0525372 22.8044 -1 24.8923 -1 27.1118H1Z" fill="#FEFEFE" mask="url(#path-1-inside-1_4643_44)"/>
</svg>
