<svg width="100%" height="40" viewBox="0 0 392 40" fill="none" xmlns="http://www.w3.org/2000/svg" preserveaspectratio='none'>
<mask id="path-1-inside-1_4383_8858" fill="white">
<path fill-rule="evenodd" clip-rule="evenodd" d="M0 20C0 19.8441 0.0760381 19.6981 0.20372 19.6087L27.1747 0.723392C27.8471 0.252555 28.6481 0 29.469 0H42.7636H388C390.209 0 392 1.79086 392 4V20C392 20.3808 391.814 20.7376 391.502 20.956L365.338 39.2766C364.665 39.7474 363.864 40 363.043 40H349.236H4C1.79086 40 0 38.2091 0 36V20ZM391.478 39.3968C391.213 39.5827 391.344 40 391.668 40C391.852 40 392 39.8515 392 39.6684C392 39.4001 391.698 39.2429 391.478 39.3968ZM0 0.454459C0 0.203468 0.203468 0 0.454459 0C0.898755 0 1.07907 0.571891 0.715125 0.826729C0.413926 1.03763 0 0.822155 0 0.454459Z"/>
</mask>
<path d="M391.502 20.956L392.076 21.7752L391.502 20.956ZM365.338 39.2766L364.764 38.4575L365.338 39.2766ZM27.1747 0.723392L26.6011 -0.0957602L27.1747 0.723392ZM26.6011 -0.0957602L-0.369857 18.7895L0.777296 20.4278L27.7482 1.54254L26.6011 -0.0957602ZM42.7636 -1H29.469V1H42.7636V-1ZM388 -1H42.7636V1H388V-1ZM393 20V4H391V20H393ZM365.911 40.0958L392.076 21.7752L390.929 20.1369L364.764 38.4575L365.911 40.0958ZM349.236 41H363.043V39H349.236V41ZM4 41H349.236V39H4V41ZM-1 20V36H1V20H-1ZM0.141549 0.00757713C0.503115 -0.245594 1 0.0130681 1 0.454459H-1C-1 1.63124 0.324738 2.32086 1.2887 1.64588L0.141549 0.00757713ZM0.454459 -1C-0.348817 -1 -1 -0.348817 -1 0.454459H1C1 0.755753 0.755753 1 0.454459 1V-1ZM393 39.6684C393 38.591 391.787 37.9596 390.905 38.5776L392.052 40.2159C391.609 40.5261 391 40.2092 391 39.6684H393ZM391.668 39C392.322 39 392.587 39.8411 392.052 40.2159L390.905 38.5776C389.838 39.3243 390.367 41 391.668 41V39ZM4 39C2.34315 39 1 37.6569 1 36H-1C-1 38.7614 1.23858 41 4 41V39ZM391 20C391 20.0545 390.973 20.1056 390.929 20.1369L392.076 21.7752C392.655 21.3696 393 20.707 393 20H391ZM388 1C389.657 1 391 2.34315 391 4H393C393 1.23858 390.761 -1 388 -1V1ZM364.764 38.4575C364.26 38.8106 363.659 39 363.043 39V41C364.07 41 365.071 40.6843 365.911 40.0958L364.764 38.4575ZM0.454459 1C-0.0788847 1 -0.295341 0.313491 0.141549 0.00757713L1.2887 1.64588C2.45348 0.830291 1.8764 -1 0.454459 -1V1ZM27.7482 1.54254C28.2526 1.18942 28.8533 1 29.469 1V-1C28.4429 -1 27.4416 -0.684306 26.6011 -0.0957602L27.7482 1.54254ZM391.668 41C392.404 41 393 40.4038 393 39.6684H391C391 39.2992 391.299 39 391.668 39V41ZM1 20C1 20.1704 0.916877 20.3301 0.777296 20.4278L-0.369857 18.7895C-0.764801 19.066 -1 19.5179 -1 20H1Z" fill="#FEFEFE" mask="url(#path-1-inside-1_4383_8858)"/>
</svg>
