<svg width="100%" height="40" viewBox="0 0 696 40" fill="none" xmlns="http://www.w3.org/2000/svg" preserveaspectratio='none'>
<mask id="path-1-inside-1_4383_8818" fill="white">
<path fill-rule="evenodd" clip-rule="evenodd" d="M0 20C0 19.8441 0.0760381 19.6981 0.20372 19.6087L27.1747 0.723392C27.8471 0.252555 28.6481 0 29.469 0H75.9273H692C694.209 0 696 1.79086 696 4V20C696 20.8196 695.6 21.5877 694.929 22.0578L670.338 39.2766C669.665 39.7474 668.864 40 668.044 40H620.073H4C1.79086 40 0 38.2091 0 36V20ZM695.855 39.8328C695.782 39.8844 695.818 40 695.908 40C695.959 40 696 39.9589 696 39.9081C696 39.8338 695.916 39.7902 695.855 39.8328ZM0 0.454459C0 0.203468 0.203468 0 0.454459 0C0.898755 0 1.07907 0.571891 0.715125 0.826729C0.413926 1.03763 0 0.822155 0 0.454459Z"/>
</mask>
<path d="M694.929 22.0578L695.502 22.877L694.929 22.0578ZM670.338 39.2766L670.911 40.0958L670.338 39.2766ZM27.1747 0.723392L26.6011 -0.0957602L27.1747 0.723392ZM26.6011 -0.0957602L-0.369857 18.7895L0.777296 20.4278L27.7482 1.54254L26.6011 -0.0957602ZM75.9273 -1H29.469V1H75.9273V-1ZM692 -1H75.9273V1H692V-1ZM697 20V4H695V20H697ZM670.911 40.0958L695.502 22.877L694.355 21.2387L669.764 38.4575L670.911 40.0958ZM620.073 41H668.044V39H620.073V41ZM4 41H620.073V39H4V41ZM-1 20V36H1V20H-1ZM0.141549 0.00757713C0.503115 -0.245594 1 0.0130681 1 0.454459H-1C-1 1.63124 0.324738 2.32086 1.2887 1.64588L0.141549 0.00757713ZM0.454459 -1C-0.348817 -1 -1 -0.348817 -1 0.454459H1C1 0.755753 0.755753 1 0.454459 1V-1ZM697 39.9081C697 39.0247 696.005 38.507 695.282 39.0137L696.429 40.652C695.827 41.0734 695 40.6428 695 39.9081H697ZM695.908 39C696.796 39 697.156 40.1428 696.429 40.652L695.282 39.0137C694.407 39.6259 694.841 41 695.908 41V39ZM4 39C2.34315 39 1 37.6569 1 36H-1C-1 38.7614 1.23858 41 4 41V39ZM695 20C695 20.4934 694.759 20.9557 694.355 21.2387L695.502 22.877C696.441 22.2197 697 21.1459 697 20H695ZM692 1C693.657 1 695 2.34315 695 4H697C697 1.23858 694.761 -1 692 -1V1ZM669.764 38.4575C669.26 38.8106 668.659 39 668.044 39V41C669.07 41 670.071 40.6843 670.911 40.0958L669.764 38.4575ZM0.454459 1C-0.0788847 1 -0.295341 0.313491 0.141549 0.00757713L1.2887 1.64588C2.45348 0.830291 1.8764 -1 0.454459 -1V1ZM27.7482 1.54254C28.2526 1.18942 28.8533 1 29.469 1V-1C28.4429 -1 27.4416 -0.684306 26.6011 -0.0957602L27.7482 1.54254ZM695.908 41C696.511 41 697 40.5111 697 39.9081H695C695 39.4066 695.407 39 695.908 39V41ZM1 20C1 20.1704 0.916877 20.3301 0.777296 20.4278L-0.369857 18.7895C-0.764801 19.066 -1 19.5179 -1 20H1Z" fill="#FEFEFE" mask="url(#path-1-inside-1_4383_8818)"/>
</svg>
