<svg width="806" height="50" viewBox="0 0 806 50" fill="none" xmlns="http://www.w3.org/2000/svg">
<path fill-rule="evenodd" clip-rule="evenodd" d="M2.43153 22.2883C0.902175 23.4197 0 25.2094 0 27.1118V44C0 47.3137 2.68629 50 6 50H770.139C771.423 50 772.674 49.5876 773.707 48.8235L803.568 26.7316C805.098 25.6001 806 23.8105 806 21.9081V6C806 2.68629 803.314 0 800 0H34.5366C33.2519 0 32.001 0.412402 30.9681 1.17652L2.43153 22.2883ZM805.937 50C805.876 50 805.85 49.9221 805.899 49.8857V49.8857C805.941 49.8548 806 49.8846 806 49.9367V49.9367C806 49.9716 805.972 50 805.937 50V50Z" fill="#FEFEFE"/>
</svg>
