<svg width="806" height="50" viewBox="0 0 806 50" fill="none" xmlns="http://www.w3.org/2000/svg">
<mask id="path-1-inside-1_4643_4" fill="white">
<path fill-rule="evenodd" clip-rule="evenodd" d="M2.43153 22.2883C0.902175 23.4197 0 25.2094 0 27.1118V44C0 47.3137 2.68629 50 6 50H769.138C770.423 50 771.674 49.5876 772.707 48.8235L803.568 25.9917C805.098 24.8603 806 23.0706 806 21.1683V6C806 2.68629 803.314 0 800 0H34.5366C33.2519 0 32.001 0.412402 30.9681 1.17652L2.43153 22.2883ZM805.689 50C805.389 50 805.262 49.617 805.504 49.4384V49.4384C805.709 49.2864 806 49.4331 806 49.6887V49.6887C806 49.8606 805.861 50 805.689 50V50Z"/>
</mask>
<path d="M30.9681 1.17652L31.5629 1.98043L30.9681 1.17652ZM803.568 25.9917L802.974 25.1878L803.568 25.9917ZM772.707 48.8235L773.302 49.6274L772.707 48.8235ZM-1 27.1118V44H1V27.1118H-1ZM6 51H769.138V49H6V51ZM773.302 49.6274L804.163 26.7957L802.974 25.1878L772.112 48.0196L773.302 49.6274ZM807 21.1683V6H805V21.1683H807ZM800 -1H34.5366V1H800V-1ZM30.3734 0.372605L1.83678 21.4844L3.02627 23.0922L31.5629 1.98043L30.3734 0.372605ZM805 49.6887C805 49.3083 805.308 49 805.689 49V51C806.413 51 807 50.4129 807 49.6887H805ZM804.909 48.6345C803.892 49.3866 804.424 51 805.689 51V49C806.353 49 806.632 49.8474 806.098 50.2424L804.909 48.6345ZM806.098 50.2424C805.644 50.5787 805 50.2541 805 49.6887H807C807 48.6121 805.774 47.9942 804.909 48.6345L806.098 50.2424ZM34.5366 -1C33.0377 -1 31.5784 -0.518868 30.3734 0.372605L31.5629 1.98043C32.4236 1.34367 33.466 1 34.5366 1V-1ZM807 6C807 2.13401 803.866 -1 800 -1V1C802.761 1 805 3.23858 805 6H807ZM804.163 26.7957C805.947 25.4757 807 23.3877 807 21.1683H805C805 22.7536 804.248 24.245 802.974 25.1878L804.163 26.7957ZM769.138 51C770.637 51 772.097 50.5189 773.302 49.6274L772.112 48.0196C771.252 48.6563 770.209 49 769.138 49V51ZM-1 44C-1 47.866 2.13401 51 6 51V49C3.23858 49 1 46.7614 1 44H-1ZM1 27.1118C1 25.5264 1.75181 24.0351 3.02627 23.0922L1.83678 21.4844C0.0525372 22.8044 -1 24.8923 -1 27.1118H1Z" fill="#FEFEFE" mask="url(#path-1-inside-1_4643_4)"/>
</svg>
