<svg width="100%" height="40" viewBox="0 0 473 40" fill="none" xmlns="http://www.w3.org/2000/svg" preserveaspectratio='none'>
<mask id="path-1-inside-1_4383_8798" fill="white">
<path fill-rule="evenodd" clip-rule="evenodd" d="M0 20C0 19.8441 0.0760381 19.6981 0.20372 19.6087L27.1747 0.723392C27.8471 0.252555 28.6481 0 29.469 0H51.6H469C471.209 0 473 1.79086 473 4V20C473 20.8196 472.6 21.5877 471.929 22.0578L447.338 39.2766C446.665 39.7474 445.864 40 445.043 40H421.4H4C1.79086 40 0 38.2091 0 36V20ZM472.855 39.8328C472.782 39.8844 472.818 40 472.908 40C472.959 40 473 39.9589 473 39.9081C473 39.8338 472.916 39.7902 472.855 39.8328ZM0 0.454459C0 0.203468 0.203468 0 0.454459 0C0.898755 0 1.07907 0.571891 0.715125 0.826729C0.413926 1.03763 0 0.822155 0 0.454459Z"/>
</mask>
<path d="M471.929 22.0578L471.355 21.2387L471.929 22.0578ZM447.338 39.2766L447.911 40.0958L447.338 39.2766ZM27.1747 0.723392L26.6011 -0.0957602L27.1747 0.723392ZM26.6011 -0.0957602L-0.369857 18.7895L0.777296 20.4278L27.7482 1.54254L26.6011 -0.0957602ZM51.6 -1H29.469V1H51.6V-1ZM469 -1H51.6V1H469V-1ZM474 20V4H472V20H474ZM447.911 40.0958L472.502 22.877L471.355 21.2387L446.764 38.4575L447.911 40.0958ZM421.4 41H445.043V39H421.4V41ZM4 41H421.4V39H4V41ZM-1 20V36H1V20H-1ZM0.141549 0.00757713C0.503115 -0.245594 1 0.0130681 1 0.454459H-1C-1 1.63124 0.324738 2.32086 1.2887 1.64588L0.141549 0.00757713ZM0.454459 -1C-0.348817 -1 -1 -0.348817 -1 0.454459H1C1 0.755753 0.755753 1 0.454459 1V-1ZM474 39.9081C474 39.0247 473.005 38.507 472.282 39.0137L473.429 40.652C472.827 41.0734 472 40.6428 472 39.9081H474ZM472.908 39C473.796 39 474.156 40.1428 473.429 40.652L472.282 39.0137C471.407 39.626 471.841 41 472.908 41V39ZM4 39C2.34315 39 1 37.6569 1 36H-1C-1 38.7614 1.23858 41 4 41V39ZM472 20C472 20.4934 471.759 20.9557 471.355 21.2387L472.502 22.877C473.441 22.2197 474 21.1459 474 20H472ZM469 1C470.657 1 472 2.34315 472 4H474C474 1.23858 471.761 -1 469 -1V1ZM446.764 38.4575C446.26 38.8106 445.659 39 445.043 39V41C446.07 41 447.071 40.6843 447.911 40.0958L446.764 38.4575ZM0.454459 1C-0.0788847 1 -0.295341 0.313491 0.141549 0.00757713L1.2887 1.64588C2.45348 0.830291 1.8764 -1 0.454459 -1V1ZM27.7482 1.54254C28.2526 1.18942 28.8533 1 29.469 1V-1C28.4429 -1 27.4416 -0.684306 26.6011 -0.0957602L27.7482 1.54254ZM472.908 41C473.511 41 474 40.5111 474 39.9081H472C472 39.4066 472.407 39 472.908 39V41ZM1 20C1 20.1704 0.916877 20.3301 0.777296 20.4278L-0.369857 18.7895C-0.764801 19.066 -1 19.5179 -1 20H1Z" fill="#FEFEFE" mask="url(#path-1-inside-1_4383_8798)"/>
</svg>
