<svg width="160" height="50" viewBox="0 0 160 50" fill="none" xmlns="http://www.w3.org/2000/svg">
<g id="Subtract">
<mask id="path-1-inside-1_796_6383" fill="white">
<path fill-rule="evenodd" clip-rule="evenodd" d="M4 50C1.79086 50 0 48.2091 0 46V17.1826C0 15.8775 0.636653 14.6545 1.70569 13.9059L20.5323 0.723392C21.2048 0.252555 22.0058 0 22.8266 0H156C158.209 0 160 1.79086 160 4V32.266C160 33.5711 159.363 34.7941 158.294 35.5426L138.68 49.2766C138.008 49.7474 137.207 50 136.386 50H4ZM159.46 49.3757C159.185 49.5681 159.321 50 159.657 50C159.846 50 160 49.8464 160 49.6568C160 49.3792 159.687 49.2164 159.46 49.3757ZM0 0.154396C0 0.0691256 0.0691256 0 0.154396 0C0.30534 0 0.3666 0.194292 0.242954 0.28087C0.140626 0.352521 0 0.279316 0 0.154396Z"/>
</mask>
<path d="M138.68 49.2766L138.107 48.4575L138.68 49.2766ZM158.294 35.5426L158.868 36.3618L158.294 35.5426ZM20.5323 0.723392L19.9588 -0.0957603L20.5323 0.723392ZM-1 17.1826V46H1V17.1826H-1ZM19.9588 -0.0957603L1.13212 13.0868L2.27927 14.7251L21.1059 1.54254L19.9588 -0.0957603ZM156 -1H22.8266V1H156V-1ZM161 32.266V4H159V32.266H161ZM139.254 50.0958L158.868 36.3618L157.721 34.7235L138.107 48.4575L139.254 50.0958ZM4 51H136.386V49H4V51ZM-0.330622 -0.538282C0.229814 -0.930703 1 -0.529771 1 0.154396H-1C-1 1.0884 0.0514379 1.63575 0.816531 1.10002L-0.330622 -0.538282ZM0.154396 -1C-0.483159 -1 -1 -0.483159 -1 0.154396H1C1 0.62141 0.62141 1 0.154396 1V-1ZM0.154396 1C-0.672301 1 -1.00781 -0.0641089 -0.330622 -0.538282L0.816531 1.10002C1.74101 0.452694 1.28298 -1 0.154396 -1V1ZM161 49.6568C161 48.5701 159.777 47.9332 158.886 48.5566L160.034 50.1949C159.598 50.4997 159 50.1883 159 49.6568H161ZM159.657 51C160.399 51 161 50.3986 161 49.6568H159C159 49.2941 159.294 49 159.657 49V51ZM159.657 49C160.299 49 160.56 49.8265 160.034 50.1949L158.886 48.5566C157.811 49.3097 158.344 51 159.657 51V49ZM138.107 48.4575C137.602 48.8106 137.002 49 136.386 49V51C137.412 51 138.413 50.6843 139.254 50.0958L138.107 48.4575ZM159 32.266C159 33.2448 158.523 34.1621 157.721 34.7235L158.868 36.3618C160.204 35.4261 161 33.8973 161 32.266H159ZM156 1C157.657 1 159 2.34315 159 4H161C161 1.23858 158.761 -1 156 -1V1ZM21.1059 1.54254C21.6102 1.18942 22.211 1 22.8266 1V-1C21.8005 -1 20.7993 -0.684307 19.9588 -0.0957603L21.1059 1.54254ZM-1 46C-1 48.7614 1.23857 51 4 51V49C2.34315 49 1 47.6569 1 46H-1ZM1 17.1826C1 16.2038 1.47749 15.2865 2.27927 14.7251L1.13212 13.0868C-0.204184 14.0225 -1 15.5512 -1 17.1826H1Z" fill="#404040" mask="url(#path-1-inside-1_796_6383)"/>
</g>
</svg>
