<svg width="134" height="40" viewBox="0 0 134 40" fill="none" xmlns="http://www.w3.org/2000/svg" preserveAspectRatio="none">
<g id="Subtract">
<mask id="path-1-inside-1_796_3206" fill="white">
<path fill-rule="evenodd" clip-rule="evenodd" d="M4 40C1.79086 40 0 38.2091 0 36V16.3817C0 15.0766 0.636653 13.8536 1.70569 13.1051L19.3885 0.723392C20.061 0.252555 20.862 0 21.6828 0H130C132.209 0 134 1.79086 134 4V23.6664C134 24.9714 133.363 26.1944 132.294 26.943L114.68 39.2766C114.008 39.7474 113.207 40 112.386 40H4Z"/>
</mask>
<path d="M114.68 39.2766L114.106 38.4575L114.68 39.2766ZM132.294 26.943L131.721 26.1238L132.294 26.943ZM-1 16.3817V36H1V16.3817H-1ZM18.815 -0.0957603L1.13212 12.2859L2.27927 13.9242L19.9621 1.54254L18.815 -0.0957603ZM130 -1H21.6828V1H130V-1ZM135 23.6664V4H133V23.6664H135ZM115.254 40.0958L132.868 27.7621L131.721 26.1238L114.106 38.4575L115.254 40.0958ZM4 41H112.386V39H4V41ZM114.106 38.4575C113.602 38.8106 113.001 39 112.386 39V41C113.412 41 114.413 40.6843 115.254 40.0958L114.106 38.4575ZM133 23.6664C133 24.6452 132.523 25.5624 131.721 26.1238L132.868 27.7621C134.204 26.8264 135 25.2977 135 23.6664H133ZM130 1C131.657 1 133 2.34314 133 4H135C135 1.23857 132.761 -1 130 -1V1ZM19.9621 1.54254C20.4664 1.18942 21.0672 1 21.6828 1V-1C20.6567 -1 19.6555 -0.684306 18.815 -0.0957603L19.9621 1.54254ZM-1 36C-1 38.7614 1.23858 41 4 41V39C2.34315 39 1 37.6569 1 36H-1ZM1 16.3817C1 15.4029 1.47749 14.4856 2.27927 13.9242L1.13212 12.2859C-0.204184 13.2216 -1 14.7503 -1 16.3817H1Z" fill="#404040" mask="url(#path-1-inside-1_796_3206)"/>
</g>
</svg>
