<svg width="18" height="18" viewBox="0 0 18 18" fill="none" xmlns="http://www.w3.org/2000/svg">
<path d="M0 0.0421886C0 0.063282 1.5552 2.29219 3.4488 4.98516C5.3496 7.68516 6.912 9.92109 6.9264 9.96328C6.9408 9.99844 5.3928 11.7984 3.492 13.95C1.5912 16.1086 0.0288 17.9016 0.0144 17.9367C0 17.9719 0.36 18 0.8136 18H1.6416L4.68 14.5547C6.3504 12.6633 7.7256 11.1094 7.74 11.1094C7.7544 11.1094 8.8488 12.6633 10.1808 14.5547L12.6072 18H15.3072C16.8696 18 18 17.9719 18 17.9367C18 17.9016 16.4376 15.6445 14.5224 12.9234C12.6072 10.2094 10.9872 7.89609 10.9152 7.79063L10.7928 7.60781L11.2824 7.05234C11.556 6.75 13.068 5.04141 14.6376 3.24844L17.5032 0H16.6464H15.7824L12.9888 3.17813C11.448 4.92188 10.152 6.39844 10.1088 6.45469C10.0512 6.53203 9.5472 5.85703 7.7328 3.27656L5.436 0.00703239L2.7216 0C1.224 0 0 0.0210934 0 0.0421886ZM10.116 8.93672C13.1688 13.1977 15.6888 16.7273 15.7176 16.7836C15.768 16.8609 15.588 16.875 14.6088 16.8609L13.4352 16.8398L11.7 14.4141C10.7496 13.0781 8.2296 9.5625 6.1056 6.58828L2.2392 1.19531H3.4056H4.572L10.116 8.93672Z" fill="#FEFEFE"/>
</svg>
