<svg width="18" height="18" viewBox="0 0 18 18" fill="none" xmlns="http://www.w3.org/2000/svg">
<g clip-path="url(#clip0_3902_17)">
<path d="M7.875 0H6.75V1.125H7.875V0Z" fill="white"/>
<path d="M9 0H7.875V1.125H9V0Z" fill="white"/>
<path d="M10.125 0H9V1.125H10.125V0Z" fill="white"/>
<path d="M11.25 0H10.125V1.125H11.25V0Z" fill="white"/>
<path d="M6.75 1.125H5.625V2.25H6.75V1.125Z" fill="white"/>
<path d="M7.875 1.125H6.75V2.25H7.875V1.125Z" fill="white"/>
<path d="M9 1.125H7.875V2.25H9V1.125Z" fill="white"/>
<path d="M10.125 1.125H9V2.25H10.125V1.125Z" fill="white"/>
<path d="M11.25 1.125H10.125V2.25H11.25V1.125Z" fill="white"/>
<path d="M12.375 1.125H11.25V2.25H12.375V1.125Z" fill="white"/>
<path d="M5.625 2.25H4.5V3.375H5.625V2.25Z" fill="white"/>
<path d="M6.75 2.25H5.625V3.375H6.75V2.25Z" fill="white"/>
<path d="M7.875 2.25H6.75V3.375H7.875V2.25Z" fill="white"/>
<path d="M9 2.25H7.875V3.375H9V2.25Z" fill="white"/>
<path d="M10.125 2.25H9V3.375H10.125V2.25Z" fill="white"/>
<path d="M11.25 2.25H10.125V3.375H11.25V2.25Z" fill="white"/>
<path d="M12.375 2.25H11.25V3.375H12.375V2.25Z" fill="white"/>
<path d="M13.5 2.25H12.375V3.375H13.5V2.25Z" fill="white"/>
<path d="M5.625 3.375H4.5V4.5H5.625V3.375Z" fill="white"/>
<path d="M6.75 3.375H5.625V4.5H6.75V3.375Z" fill="white"/>
<path d="M7.875 3.375H6.75V4.5H7.875V3.375Z" fill="white"/>
<path d="M9 3.375H7.875V4.5H9V3.375Z" fill="white"/>
<path d="M10.125 3.375H9V4.5H10.125V3.375Z" fill="white"/>
<path d="M11.25 3.375H10.125V4.5H11.25V3.375Z" fill="white"/>
<path d="M12.375 3.375H11.25V4.5H12.375V3.375Z" fill="white"/>
<path d="M13.5 3.375H12.375V4.5H13.5V3.375Z" fill="white"/>
<path d="M5.625 4.5H4.5V5.625H5.625V4.5Z" fill="white"/>
<path d="M6.75 4.5H5.625V5.625H6.75V4.5Z" fill="white"/>
<path d="M7.875 4.5H6.75V5.625H7.875V4.5Z" fill="white"/>
<path d="M9 4.5H7.875V5.625H9V4.5Z" fill="white"/>
<path d="M10.125 4.5H9V5.625H10.125V4.5Z" fill="white"/>
<path d="M11.25 4.5H10.125V5.625H11.25V4.5Z" fill="white"/>
<path d="M12.375 4.5H11.25V5.625H12.375V4.5Z" fill="white"/>
<path d="M13.5 4.5H12.375V5.625H13.5V4.5Z" fill="white"/>
<path d="M5.625 5.625H4.5V6.75H5.625V5.625Z" fill="white"/>
<path d="M6.75 5.625H5.625V6.75H6.75V5.625Z" fill="white"/>
<path d="M7.875 5.625H6.75V6.75H7.875V5.625Z" fill="white"/>
<path d="M9 5.625H7.875V6.75H9V5.625Z" fill="white"/>
<path d="M10.125 5.625H9V6.75H10.125V5.625Z" fill="white"/>
<path d="M11.25 5.625H10.125V6.75H11.25V5.625Z" fill="white"/>
<path d="M12.375 5.625H11.25V6.75H12.375V5.625Z" fill="white"/>
<path d="M13.5 5.625H12.375V6.75H13.5V5.625Z" fill="white"/>
<path d="M5.625 6.75H4.5V7.875H5.625V6.75Z" fill="white"/>
<path d="M6.75 6.75H5.625V7.875H6.75V6.75Z" fill="white"/>
<path d="M7.875 6.75H6.75V7.875H7.875V6.75Z" fill="white"/>
<path d="M9 6.75H7.875V7.875H9V6.75Z" fill="white"/>
<path d="M10.125 6.75H9V7.875H10.125V6.75Z" fill="white"/>
<path d="M11.25 6.75H10.125V7.875H11.25V6.75Z" fill="white"/>
<path d="M12.375 6.75H11.25V7.875H12.375V6.75Z" fill="white"/>
<path d="M13.5 6.75H12.375V7.875H13.5V6.75Z" fill="white"/>
<path d="M6.75 7.875H5.625V9H6.75V7.875Z" fill="white"/>
<path d="M7.875 7.875H6.75V9H7.875V7.875Z" fill="white"/>
<path d="M9 7.875H7.875V9H9V7.875Z" fill="white"/>
<path d="M10.125 7.875H9V9H10.125V7.875Z" fill="white"/>
<path d="M11.25 7.875H10.125V9H11.25V7.875Z" fill="white"/>
<path d="M12.375 7.875H11.25V9H12.375V7.875Z" fill="white"/>
<path d="M7.875 9H6.75V10.125H7.875V9Z" fill="white"/>
<path d="M9 9H7.875V10.125H9V9Z" fill="white"/>
<path d="M10.125 9H9V10.125H10.125V9Z" fill="white"/>
<path d="M11.25 9H10.125V10.125H11.25V9Z" fill="white"/>
<path d="M5.625 11.25H4.5V12.375H5.625V11.25Z" fill="white"/>
<path d="M6.75 11.25H5.625V12.375H6.75V11.25Z" fill="white"/>
<path d="M7.875 11.25H6.75V12.375H7.875V11.25Z" fill="white"/>
<path d="M9 11.25H7.875V12.375H9V11.25Z" fill="white"/>
<path d="M10.125 11.25H9V12.375H10.125V11.25Z" fill="white"/>
<path d="M11.25 11.25H10.125V12.375H11.25V11.25Z" fill="white"/>
<path d="M12.375 11.25H11.25V12.375H12.375V11.25Z" fill="white"/>
<path d="M13.5 11.25H12.375V12.375H13.5V11.25Z" fill="white"/>
<path d="M3.375 12.375H2.25V13.5H3.375V12.375Z" fill="white"/>
<path d="M4.5 12.375H3.375V13.5H4.5V12.375Z" fill="white"/>
<path d="M5.625 12.375H4.5V13.5H5.625V12.375Z" fill="white"/>
<path d="M6.75 12.375H5.625V13.5H6.75V12.375Z" fill="white"/>
<path d="M7.875 12.375H6.75V13.5H7.875V12.375Z" fill="white"/>
<path d="M9 12.375H7.875V13.5H9V12.375Z" fill="white"/>
<path d="M10.125 12.375H9V13.5H10.125V12.375Z" fill="white"/>
<path d="M11.25 12.375H10.125V13.5H11.25V12.375Z" fill="white"/>
<path d="M12.375 12.375H11.25V13.5H12.375V12.375Z" fill="white"/>
<path d="M13.5 12.375H12.375V13.5H13.5V12.375Z" fill="white"/>
<path d="M14.625 12.375H13.5V13.5H14.625V12.375Z" fill="white"/>
<path d="M15.75 12.375H14.625V13.5H15.75V12.375Z" fill="white"/>
<path d="M2.25 13.5H1.125V14.625H2.25V13.5Z" fill="white"/>
<path d="M3.375 13.5H2.25V14.625H3.375V13.5Z" fill="white"/>
<path d="M4.5 13.5H3.375V14.625H4.5V13.5Z" fill="white"/>
<path d="M5.625 13.5H4.5V14.625H5.625V13.5Z" fill="white"/>
<path d="M6.75 13.5H5.625V14.625H6.75V13.5Z" fill="white"/>
<path d="M7.875 13.5H6.75V14.625H7.875V13.5Z" fill="white"/>
<path d="M9 13.5H7.875V14.625H9V13.5Z" fill="white"/>
<path d="M10.125 13.5H9V14.625H10.125V13.5Z" fill="white"/>
<path d="M11.25 13.5H10.125V14.625H11.25V13.5Z" fill="white"/>
<path d="M12.375 13.5H11.25V14.625H12.375V13.5Z" fill="white"/>
<path d="M13.5 13.5H12.375V14.625H13.5V13.5Z" fill="white"/>
<path d="M14.625 13.5H13.5V14.625H14.625V13.5Z" fill="white"/>
<path d="M15.75 13.5H14.625V14.625H15.75V13.5Z" fill="white"/>
<path d="M16.875 13.5H15.75V14.625H16.875V13.5Z" fill="white"/>
<path d="M1.125 14.625H0V15.75H1.125V14.625Z" fill="white"/>
<path d="M2.25 14.625H1.125V15.75H2.25V14.625Z" fill="white"/>
<path d="M3.375 14.625H2.25V15.75H3.375V14.625Z" fill="white"/>
<path d="M4.5 14.625H3.375V15.75H4.5V14.625Z" fill="white"/>
<path d="M5.625 14.625H4.5V15.75H5.625V14.625Z" fill="white"/>
<path d="M6.75 14.625H5.625V15.75H6.75V14.625Z" fill="white"/>
<path d="M7.875 14.625H6.75V15.75H7.875V14.625Z" fill="white"/>
<path d="M9 14.625H7.875V15.75H9V14.625Z" fill="white"/>
<path d="M10.125 14.625H9V15.75H10.125V14.625Z" fill="white"/>
<path d="M11.25 14.625H10.125V15.75H11.25V14.625Z" fill="white"/>
<path d="M12.375 14.625H11.25V15.75H12.375V14.625Z" fill="white"/>
<path d="M13.5 14.625H12.375V15.75H13.5V14.625Z" fill="white"/>
<path d="M14.625 14.625H13.5V15.75H14.625V14.625Z" fill="white"/>
<path d="M15.75 14.625H14.625V15.75H15.75V14.625Z" fill="white"/>
<path d="M16.875 14.625H15.75V15.75H16.875V14.625Z" fill="white"/>
<path d="M18 14.625H16.875V15.75H18V14.625Z" fill="white"/>
<path d="M1.125 15.75H0V16.875H1.125V15.75Z" fill="white"/>
<path d="M2.25 15.75H1.125V16.875H2.25V15.75Z" fill="white"/>
<path d="M3.375 15.75H2.25V16.875H3.375V15.75Z" fill="white"/>
<path d="M4.5 15.75H3.375V16.875H4.5V15.75Z" fill="white"/>
<path d="M5.625 15.75H4.5V16.875H5.625V15.75Z" fill="white"/>
<path d="M6.75 15.75H5.625V16.875H6.75V15.75Z" fill="white"/>
<path d="M7.875 15.75H6.75V16.875H7.875V15.75Z" fill="white"/>
<path d="M9 15.75H7.875V16.875H9V15.75Z" fill="white"/>
<path d="M10.125 15.75H9V16.875H10.125V15.75Z" fill="white"/>
<path d="M11.25 15.75H10.125V16.875H11.25V15.75Z" fill="white"/>
<path d="M12.375 15.75H11.25V16.875H12.375V15.75Z" fill="white"/>
<path d="M13.5 15.75H12.375V16.875H13.5V15.75Z" fill="white"/>
<path d="M14.625 15.75H13.5V16.875H14.625V15.75Z" fill="white"/>
<path d="M15.75 15.75H14.625V16.875H15.75V15.75Z" fill="white"/>
<path d="M16.875 15.75H15.75V16.875H16.875V15.75Z" fill="white"/>
<path d="M18 15.75H16.875V16.875H18V15.75Z" fill="white"/>
<path d="M1.125 16.875H0V18H1.125V16.875Z" fill="white"/>
<path d="M2.25 16.875H1.125V18H2.25V16.875Z" fill="white"/>
<path d="M3.375 16.875H2.25V18H3.375V16.875Z" fill="white"/>
<path d="M4.5 16.875H3.375V18H4.5V16.875Z" fill="white"/>
<path d="M5.625 16.875H4.5V18H5.625V16.875Z" fill="white"/>
<path d="M6.75 16.875H5.625V18H6.75V16.875Z" fill="white"/>
<path d="M7.875 16.875H6.75V18H7.875V16.875Z" fill="white"/>
<path d="M9 16.875H7.875V18H9V16.875Z" fill="white"/>
<path d="M10.125 16.875H9V18H10.125V16.875Z" fill="white"/>
<path d="M11.25 16.875H10.125V18H11.25V16.875Z" fill="white"/>
<path d="M12.375 16.875H11.25V18H12.375V16.875Z" fill="white"/>
<path d="M13.5 16.875H12.375V18H13.5V16.875Z" fill="white"/>
<path d="M14.625 16.875H13.5V18H14.625V16.875Z" fill="white"/>
<path d="M15.75 16.875H14.625V18H15.75V16.875Z" fill="white"/>
<path d="M16.875 16.875H15.75V18H16.875V16.875Z" fill="white"/>
<path d="M18 16.875H16.875V18H18V16.875Z" fill="white"/>
</g>
<defs>
<clipPath id="clip0_3902_17">
<rect width="18" height="18" fill="white"/>
</clipPath>
</defs>
</svg>
