<svg width="100%" height="50" viewBox="0 0 670 50" fill="none" xmlns="http://www.w3.org/2000/svg" preserveaspectratio='none'>
<mask id="path-1-inside-1_4383_7512" fill="white">
<path fill-rule="evenodd" clip-rule="evenodd" d="M2.43153 22.2883C0.902175 23.4197 0 25.2094 0 27.1118V44C0 47.3137 2.68629 50 6 50H634.139C635.424 50 636.674 49.5876 637.707 48.8235L667.568 26.7318C669.098 25.6004 670 23.8107 670 21.9083V5.99999C670 2.68629 667.314 0 664 0H34.5366C33.2519 0 32.001 0.412402 30.9681 1.17652L2.43153 22.2883ZM669.937 50C669.876 50 669.85 49.9222 669.899 49.8859C669.941 49.855 670 49.8848 670 49.9367C670 49.9717 669.972 50 669.937 50Z"/>
</mask>
<path d="M30.9681 1.17652L31.5629 1.98043L30.9681 1.17652ZM667.568 26.7318L668.163 27.5357L667.568 26.7318ZM637.707 48.8235L638.302 49.6274L637.707 48.8235ZM-1 27.1118V44H1V27.1118H-1ZM6 51H634.139V49H6V51ZM638.302 49.6274L668.163 27.5357L666.974 25.9279L637.113 48.0196L638.302 49.6274ZM671 21.9083V5.99999H669V21.9083H671ZM664 -1H34.5366V1H664V-1ZM30.3734 0.372605L1.83678 21.4844L3.02627 23.0922L31.5629 1.98043L30.3734 0.372605ZM669 49.9367C669 49.4194 669.419 49 669.937 49V51C670.524 51 671 50.524 671 49.9367H669ZM669.304 49.082C668.48 49.6918 668.911 51 669.937 51V49C670.84 49 671.22 50.1525 670.494 50.6898L669.304 49.082ZM670.494 50.6898C669.876 51.1472 669 50.7058 669 49.9367H671C671 49.0638 670.006 48.5628 669.304 49.082L670.494 50.6898ZM34.5366 -1C33.0377 -1 31.5784 -0.518868 30.3734 0.372605L31.5629 1.98043C32.4236 1.34367 33.466 1 34.5366 1V-1ZM671 5.99999C671 2.134 667.866 -1 664 -1V1C666.761 1 669 3.23857 669 5.99999H671ZM668.163 27.5357C669.947 26.2157 671 24.1278 671 21.9083H669C669 23.4937 668.248 24.9851 666.974 25.9279L668.163 27.5357ZM634.139 51C635.638 51 637.097 50.5189 638.302 49.6274L637.113 48.0196C636.252 48.6563 635.21 49 634.139 49V51ZM-1 44C-1 47.866 2.13401 51 6 51V49C3.23858 49 1 46.7614 1 44H-1ZM1 27.1118C1 25.5264 1.75181 24.0351 3.02627 23.0922L1.83678 21.4844C0.0525372 22.8044 -1 24.8923 -1 27.1118H1Z" fill="#FEFEFE" mask="url(#path-1-inside-1_4383_7512)"/>
</svg>
