<svg width="100%" height="50" viewBox="0 0 910 50" fill="none" xmlns="http://www.w3.org/2000/svg" preserveaspectratio='none'>
<mask id="path-1-inside-1_4383_8748" fill="white">
<path fill-rule="evenodd" clip-rule="evenodd" d="M2.43153 22.2883C0.902175 23.4197 0 25.2094 0 27.1118V44C0 47.3137 2.68629 50 6 50H873.139C874.424 50 875.674 49.5876 876.707 48.8235L907.568 25.992C909.098 24.8606 910 23.0709 910 21.1685V6.00001C910 2.6863 907.314 0 904 0H34.5366C33.2519 0 32.001 0.412402 30.9681 1.17652L2.43153 22.2883ZM909.689 50C909.389 50 909.262 49.6171 909.504 49.4386C909.709 49.2866 910 49.4333 910 49.6888C910 49.8607 909.861 50 909.689 50Z"/>
</mask>
<path d="M30.9681 1.17652L31.5629 1.98043L30.9681 1.17652ZM907.568 25.992L908.163 26.7959L907.568 25.992ZM876.707 48.8235L876.113 48.0196L876.707 48.8235ZM-1 27.1118V44H1V27.1118H-1ZM6 51H873.139V49H6V51ZM877.302 49.6274L908.163 26.7959L906.974 25.1881L876.113 48.0196L877.302 49.6274ZM911 21.1685V6.00001H909V21.1685H911ZM904 -1H34.5366V1H904V-1ZM30.3734 0.372605L1.83678 21.4844L3.02627 23.0922L31.5629 1.98043L30.3734 0.372605ZM909 49.6888C909 49.3084 909.308 49 909.689 49V51C910.413 51 911 50.413 911 49.6888H909ZM908.909 48.6347C907.892 49.3867 908.424 51 909.689 51V49C910.353 49 910.632 49.8475 910.098 50.2425L908.909 48.6347ZM910.098 50.2425C909.644 50.5789 909 50.2543 909 49.6888H911C911 48.6122 909.774 47.9944 908.909 48.6347L910.098 50.2425ZM34.5366 -1C33.0377 -1 31.5784 -0.518869 30.3734 0.372605L31.5629 1.98043C32.4236 1.34367 33.466 1 34.5366 1V-1ZM911 6.00001C911 2.13402 907.866 -1 904 -1V1C906.761 1 909 3.23858 909 6.00001H911ZM908.163 26.7959C909.947 25.4759 911 23.388 911 21.1685H909C909 22.7539 908.248 24.2452 906.974 25.1881L908.163 26.7959ZM873.139 51C874.638 51 876.097 50.5189 877.302 49.6274L876.113 48.0196C875.252 48.6563 874.21 49 873.139 49V51ZM-1 44C-1 47.866 2.13401 51 6 51V49C3.23858 49 1 46.7614 1 44H-1ZM1 27.1118C1 25.5264 1.75181 24.0351 3.02627 23.0922L1.83678 21.4844C0.0525372 22.8044 -1 24.8923 -1 27.1118H1Z" fill="#FEFEFE" mask="url(#path-1-inside-1_4383_8748)"/>
</svg>
