<svg width="536" height="40" viewBox="0 0 536 40" fill="none" xmlns="http://www.w3.org/2000/svg" preserveAspectRatio="none">
<path fill-rule="evenodd" clip-rule="evenodd" d="M4 40C1.79086 40 0 38.2091 0 36V17.4226C0 15.9332 0.827479 14.5672 2.1475 13.8774L27.8346 0.45483C28.4064 0.156047 29.0419 0 29.6871 0H532C534.209 0 536 1.79087 536 4V21.9252C536 23.4146 535.173 24.7806 533.852 25.4704L506.917 39.5452C506.346 39.844 505.71 40 505.065 40H4ZM535.447 39.2867C535.096 39.4698 535.226 40 535.622 40V40C535.831 40 536 39.8307 536 39.6218V39.6218C536 39.3377 535.698 39.1551 535.447 39.2867V39.2867ZM0 0.132148C0 0.0591649 0.0591649 0 0.132148 0V0C0.270319 0 0.315809 0.18528 0.19335 0.249271V0.249271C0.105366 0.295246 0 0.23142 0 0.132148V0.132148Z" fill="#FEFEFE"/>
</svg>
