<svg width="1000" height="60" viewBox="0 0 1000 60" fill="none" xmlns="http://www.w3.org/2000/svg" preserveAspectRatio="none">
<mask id="path-1-inside-1_33_4" fill="white">
<path fill-rule="evenodd" clip-rule="evenodd" d="M6 60C2.68629 60 0 57.3137 0 54V26.1565C0 24.0302 1.12535 22.0628 2.95812 20.9848L37.2278 0.828257C38.1498 0.285957 39.2 0 40.2697 0H994C997.314 0 1000 2.68629 1000 6V33.3147C1000 35.441 998.875 37.4085 997.042 38.4865L961.873 59.1717C960.951 59.714 959.901 60 958.831 60H6ZM999.298 59.1332C998.89 59.3736 999.06 60 999.534 60V60C999.792 60 1000 59.7916 1000 59.5345V59.5345C1000 59.1744 999.609 58.9506 999.298 59.1332V59.1332ZM0 0.273156C0 0.122296 0.122296 0 0.273156 0V0C0.551455 0 0.651522 0.367512 0.41164 0.508604V0.508604C0.229546 0.615708 0 0.484413 0 0.273156V0.273156Z"/>
</mask>
<path d="M961.873 59.1717L962.38 60.0337L961.873 59.1717ZM997.042 38.4865L996.535 37.6245L997.042 38.4865ZM-1 26.1565V54H1V26.1565H-1ZM36.7208 -0.0337003L2.45113 20.1228L3.4651 21.8467L37.7347 1.69021L36.7208 -0.0337003ZM994 -1H40.2697V1H994V-1ZM1001 33.3147V6H999V33.3147H1001ZM962.38 60.0337L997.549 39.3484L996.535 37.6245L961.366 58.3098L962.38 60.0337ZM6 61H958.831V59H6V61ZM-0.0953407 -0.353353C0.389199 -0.638347 1 -0.288982 1 0.273156H-1C-1 1.25781 0.0698925 1.86976 0.918621 1.37056L-0.0953407 -0.353353ZM0.273156 -1C-0.429989 -1 -1 -0.429989 -1 0.273156H1C1 0.674581 0.674581 1 0.273156 1V-1ZM0.273156 1C-0.467375 1 -0.733647 0.0220823 -0.0953407 -0.353353L0.918621 1.37056C2.03669 0.712941 1.57028 -1 0.273156 -1V1ZM1001 59.5345C1001 58.401 999.768 57.6966 998.791 58.2712L999.805 59.9951C999.449 60.2047 999 59.9478 999 59.5345H1001ZM999.534 61C1000.34 61 1001 60.3439 1001 59.5345H999C999 59.2393 999.239 59 999.534 59V61ZM999.534 59C1000.08 59 1000.27 59.7191 999.805 59.9951L998.791 58.2712C997.504 59.0282 998.041 61 999.534 61V59ZM961.366 58.3098C960.598 58.7617 959.723 59 958.831 59V61C960.079 61 961.305 60.6664 962.38 60.0337L961.366 58.3098ZM999 33.3147C999 35.0866 998.062 36.7262 996.535 37.6245L997.549 39.3484C999.687 38.0908 1001 35.7954 1001 33.3147H999ZM994 1C996.761 1 999 3.23858 999 6H1001C1001 2.13401 997.866 -1 994 -1V1ZM37.7347 1.69021C38.5031 1.2383 39.3783 1 40.2697 1V-1C39.0217 -1 37.7964 -0.666386 36.7208 -0.0337003L37.7347 1.69021ZM-1 54C-1 57.866 2.13401 61 6 61V59C3.23857 59 1 56.7614 1 54H-1ZM1 26.1565C1 24.3846 1.93779 22.7451 3.4651 21.8467L2.45113 20.1228C0.312909 21.3805 -1 23.6759 -1 26.1565H1Z" fill="#404040" mask="url(#path-1-inside-1_33_4)"/>
</svg>
