<svg width="360" height="50" viewBox="0 0 360 50" fill="none" xmlns="http://www.w3.org/2000/svg" preserveAspectRatio="none">
<mask id="path-1-inside-1_796_3417" fill="white">
<path fill-rule="evenodd" clip-rule="evenodd" d="M6 50C2.68629 50 0 47.3137 0 44V22.7063C0 20.7487 0.954981 18.9142 2.55854 17.7914L26.4176 1.08509C27.4263 0.378833 28.6278 0 29.8591 0H354C357.314 0 360 2.6863 360 6.00001V27.2248C360 29.1824 359.045 31.0169 357.441 32.1397L333.484 48.9149C332.475 49.6212 331.274 50 330.043 50H6ZM359.936 49.9256C359.903 49.9486 359.919 50 359.959 50C359.982 50 360 49.9817 360 49.9591C360 49.9261 359.963 49.9067 359.936 49.9256ZM0 0.017293C0 0.00774234 0.00774234 0 0.017293 0C0.0341993 0 0.0410607 0.0217615 0.0272119 0.0314586C0.0157507 0.0394838 0 0.0312845 0 0.017293Z"/>
</mask>
<path d="M333.484 48.9149L334.058 49.7341L333.484 48.9149ZM357.441 32.1397L356.868 31.3206L357.441 32.1397ZM2.55854 17.7914L1.98497 16.9722L2.55854 17.7914ZM-1 22.7063V44H1V22.7063H-1ZM25.844 0.265936L1.98497 16.9722L3.13212 18.6105L26.9912 1.90424L25.844 0.265936ZM354 -1H29.8591V1H354V-1ZM361 27.2248V6.00001H359V27.2248H361ZM334.058 49.7341L358.015 32.9589L356.868 31.3206L332.91 48.0958L334.058 49.7341ZM6 51H330.043V49H6V51ZM-0.546365 -0.787693C0.104939 -1.24374 1 -0.777802 1 0.017293H-1C-1 0.840371 -0.0734374 1.32271 0.600788 0.850611L-0.546365 -0.787693ZM0.017293 -1C-0.544542 -1 -1 -0.544543 -1 0.017293H1C1 0.560027 0.560027 1 0.017293 1V-1ZM0.017293 1C-0.94344 1 -1.33335 -0.236638 -0.546365 -0.787693L0.600788 0.850611C1.41547 0.280161 1.01184 -1 0.017293 -1V1ZM361 49.9591C361 49.117 360.052 48.6235 359.362 49.1065L360.509 50.7448C359.874 51.1899 359 50.7351 359 49.9591H361ZM359.959 51C360.534 51 361 50.534 361 49.9591H359C359 49.4294 359.429 49 359.959 49V51ZM359.959 49C360.897 49 361.277 50.207 360.509 50.7448L359.362 49.1065C358.529 49.6901 358.942 51 359.959 51V49ZM332.91 48.0958C332.07 48.6843 331.069 49 330.043 49V51C331.479 51 332.881 50.558 334.058 49.7341L332.91 48.0958ZM359 27.2248C359 28.8562 358.204 30.3849 356.868 31.3206L358.015 32.9589C359.886 31.6489 361 29.5087 361 27.2248H359ZM354 1C356.761 1 359 3.23858 359 6.00001H361C361 2.13401 357.866 -1 354 -1V1ZM26.9912 1.90424C27.8317 1.31569 28.833 1 29.8591 1V-1C28.4225 -1 27.0208 -0.558028 25.844 0.265936L26.9912 1.90424ZM-1 44C-1 47.866 2.13401 51 6 51V49C3.23858 49 1 46.7614 1 44H-1ZM1 22.7063C1 21.075 1.79582 19.5462 3.13212 18.6105L1.98497 16.9722C0.114145 18.2822 -1 20.4225 -1 22.7063H1Z" fill="#404040" mask="url(#path-1-inside-1_796_3417)"/>
</svg>
