  <svg width="496" height="50" viewBox="0 0 496 50" fill="none" xmlns="http://www.w3.org/2000/svg" preserveAspectRatio="none">
  <mask id="path-1-inside-1_796_2491" fill="white">
  <path fill-rule="evenodd" clip-rule="evenodd" d="M6 50C2.68629 50 0 47.3137 0 44V22.7063C0 20.7487 0.954981 18.9142 2.55854 17.7914L26.4176 1.08509C27.4263 0.378833 28.6277 0 29.8591 0H490C493.314 0 496 2.6863 496 6.00001V27.2248C496 29.1824 495.045 31.0169 493.441 32.1397L469.484 48.9149C468.475 49.6212 467.274 50 466.043 50H6ZM495.936 49.9257C495.903 49.9486 495.919 50 495.959 50C495.982 50 496 49.9817 496 49.9591C496 49.9261 495.963 49.9067 495.936 49.9257ZM0 0.017293C0 0.00774234 0.00774234 0 0.017293 0C0.0341993 0 0.0410607 0.0217615 0.0272119 0.0314586C0.0157507 0.0394838 0 0.0312845 0 0.017293Z"/>
  </mask>
  <path d="M469.484 48.9149L470.058 49.7341L469.484 48.9149ZM493.441 32.1397L492.868 31.3206L493.441 32.1397ZM2.55854 17.7914L1.98497 16.9722L2.55854 17.7914ZM-1 22.7063V44H1V22.7063H-1ZM25.844 0.265936L1.98497 16.9722L3.13212 18.6105L26.9912 1.90424L25.844 0.265936ZM490 -1H29.8591V1H490V-1ZM497 27.2248V6.00001H495V27.2248H497ZM470.058 49.7341L494.015 32.9589L492.868 31.3206L468.91 48.0958L470.058 49.7341ZM6 51H466.043V49H6V51ZM-0.546365 -0.787693C0.104939 -1.24374 1 -0.777802 1 0.017293H-1C-1 0.840371 -0.0734374 1.32271 0.600788 0.850611L-0.546365 -0.787693ZM0.017293 -1C-0.544542 -1 -1 -0.544543 -1 0.017293H1C1 0.560027 0.560027 1 0.017293 1V-1ZM0.017293 1C-0.94344 1 -1.33335 -0.236638 -0.546365 -0.787693L0.600788 0.850611C1.41547 0.280161 1.01184 -1 0.017293 -1V1ZM497 49.9591C497 49.117 496.052 48.6235 495.362 49.1065L496.509 50.7448C495.874 51.1899 495 50.7352 495 49.9591H497ZM495.959 51C496.534 51 497 50.534 497 49.9591H495C495 49.4294 495.429 49 495.959 49V51ZM495.959 49C496.897 49 497.277 50.2069 496.509 50.7448L495.362 49.1065C494.529 49.6902 494.942 51 495.959 51V49ZM468.91 48.0958C468.07 48.6843 467.069 49 466.043 49V51C467.479 51 468.881 50.558 470.058 49.7341L468.91 48.0958ZM495 27.2248C495 28.8562 494.204 30.3849 492.868 31.3206L494.015 32.9589C495.886 31.6489 497 29.5087 497 27.2248H495ZM490 1C492.761 1 495 3.23858 495 6.00001H497C497 2.13401 493.866 -1 490 -1V1ZM26.9912 1.90424C27.8317 1.31569 28.833 1 29.8591 1V-1C28.4225 -1 27.0208 -0.558026 25.844 0.265936L26.9912 1.90424ZM-1 44C-1 47.866 2.13401 51 6 51V49C3.23858 49 1 46.7614 1 44H-1ZM1 22.7063C1 21.075 1.79582 19.5462 3.13212 18.6105L1.98497 16.9722C0.114145 18.2822 -1 20.4225 -1 22.7063H1Z" fill="#404040" mask="url(#path-1-inside-1_796_2491)"/>
  </svg>
