<svg width="140" height="40" viewBox="0 0 140 40" fill="none" xmlns="http://www.w3.org/2000/svg">
<mask id="path-1-inside-1_4383_2506" fill="white">
<path fill-rule="evenodd" clip-rule="evenodd" d="M4 40C1.79086 40 0 38.2091 0 36V16.3817C0 15.0766 0.636653 13.8536 1.70569 13.1051L19.3885 0.723392C20.061 0.252555 20.862 0 21.6828 0H136C138.209 0 140 1.79087 140 4V22.266C140 23.571 139.363 24.794 138.294 25.5426L118.68 39.2766C118.008 39.7474 117.207 40 116.386 40H4ZM139.46 39.3757C139.185 39.5681 139.321 40 139.657 40C139.846 40 140 39.8463 140 39.6568C140 39.3791 139.687 39.2164 139.46 39.3757Z"/>
</mask>
<path d="M138.294 25.5426L138.868 26.3617L138.294 25.5426ZM-1 16.3817V36H1V16.3817H-1ZM18.815 -0.0957603L1.13212 12.2859L2.27927 13.9242L19.9621 1.54254L18.815 -0.0957603ZM136 -1H21.6828V1H136V-1ZM141 22.266V4H139V22.266H141ZM119.254 40.0958L138.868 26.3617L137.721 24.7234L118.106 38.4575L119.254 40.0958ZM4 41H116.386V39H4V41ZM141 39.6568C141 38.57 139.777 37.9332 138.886 38.5565L140.034 40.1948C139.598 40.4996 139 40.1882 139 39.6568H141ZM139.657 41C140.399 41 141 40.3986 141 39.6568H139C139 39.2941 139.294 39 139.657 39V41ZM139.657 39C140.299 39 140.56 39.8265 140.034 40.1948L138.886 38.5565C137.811 39.3097 138.344 41 139.657 41V39ZM118.106 38.4575C117.602 38.8106 117.001 39 116.386 39V41C117.412 41 118.413 40.6843 119.254 40.0958L118.106 38.4575ZM139 22.266C139 23.2448 138.523 24.162 137.721 24.7234L138.868 26.3617C140.204 25.426 141 23.8973 141 22.266H139ZM136 1C137.657 1 139 2.34315 139 4H141C141 1.23858 138.761 -1 136 -1V1ZM19.9621 1.54254C20.4664 1.18942 21.0672 1 21.6828 1V-1C20.6567 -1 19.6555 -0.684305 18.815 -0.0957603L19.9621 1.54254ZM-1 36C-1 38.7614 1.23858 41 4 41V39C2.34315 39 1 37.6569 1 36H-1ZM1 16.3817C1 15.4029 1.47749 14.4856 2.27927 13.9242L1.13212 12.2859C-0.204184 13.2216 -1 14.7503 -1 16.3817H1Z" fill="#707070" mask="url(#path-1-inside-1_4383_2506)"/>
</svg>
