<svg width="180" height="40" viewBox="0 0 180 40" fill="none" xmlns="http://www.w3.org/2000/svg">
<mask id="path-1-inside-1_4383_2517" fill="white">
<path fill-rule="evenodd" clip-rule="evenodd" d="M4 40C1.79086 40 0 38.2091 0 36V16.3817C0 15.0766 0.636653 13.8536 1.70569 13.1051L19.3885 0.723392C20.061 0.252555 20.862 0 21.6829 0H176C178.209 0 180 1.79087 180 4V22.266C180 23.571 179.363 24.794 178.294 25.5426L158.68 39.2766C158.008 39.7474 157.207 40 156.386 40H4ZM179.46 39.3757C179.185 39.5681 179.321 40 179.657 40C179.846 40 180 39.8463 180 39.6568C180 39.3791 179.687 39.2164 179.46 39.3757Z"/>
</mask>
<path d="M158.68 39.2766L158.106 38.4575L158.68 39.2766ZM178.294 25.5426L178.868 26.3617L178.294 25.5426ZM-1 16.3817V36H1V16.3817H-1ZM18.815 -0.0957603L1.13212 12.2859L2.27927 13.9242L19.9621 1.54254L18.815 -0.0957603ZM176 -1H21.6829V1H176V-1ZM181 22.266V4H179V22.266H181ZM159.254 40.0958L178.868 26.3617L177.721 24.7234L158.106 38.4575L159.254 40.0958ZM4 41H156.386V39H4V41ZM181 39.6568C181 38.57 179.777 37.9332 178.886 38.5565L180.034 40.1948C179.598 40.4996 179 40.1882 179 39.6568H181ZM179.657 41C180.399 41 181 40.3986 181 39.6568H179C179 39.2941 179.294 39 179.657 39V41ZM179.657 39C180.299 39 180.56 39.8265 180.034 40.1948L178.886 38.5565C177.811 39.3097 178.344 41 179.657 41V39ZM158.106 38.4575C157.602 38.8106 157.001 39 156.386 39V41C157.412 41 158.413 40.6843 159.254 40.0958L158.106 38.4575ZM179 22.266C179 23.2448 178.523 24.162 177.721 24.7234L178.868 26.3617C180.204 25.426 181 23.8973 181 22.266H179ZM176 1C177.657 1 179 2.34315 179 4H181C181 1.23858 178.761 -1 176 -1V1ZM19.9621 1.54254C20.4664 1.18942 21.0672 1 21.6829 1V-1C20.6568 -1 19.6555 -0.684307 18.815 -0.0957603L19.9621 1.54254ZM-1 36C-1 38.7614 1.23858 41 4 41V39C2.34315 39 1 37.6569 1 36H-1ZM1 16.3817C1 15.4029 1.47749 14.4856 2.27927 13.9242L1.13212 12.2859C-0.204184 13.2216 -1 14.7503 -1 16.3817H1Z" fill="#707070" mask="url(#path-1-inside-1_4383_2517)"/>
</svg>
