<svg width="528" height="50" viewBox="0 0 528 50" fill="none"  xmlns="http://www.w3.org/2000/svg" >
<mask id="path-1-inside-1_40_7289" fill="white">
<path fill-rule="evenodd" clip-rule="evenodd" d="M4.03998 50C1.83084 50 0.039978 48.2091 0.039978 46V26.4887C0.039978 25.0322 0.83162 23.6908 2.10666 22.9869L42.8396 0.498246C43.4316 0.171421 44.0967 0 44.7729 0H524C526.209 0 528 1.79086 528 4V22.8324C528 24.2889 527.208 25.6302 525.933 26.3342L483.971 49.5018C483.379 49.8286 482.714 50 482.037 50H4.03998Z"/>
</mask>
<path d="M483.971 49.5018L483.487 48.6263L483.971 49.5018ZM525.933 26.3342L525.45 25.4587L525.933 26.3342ZM2.10666 22.9869L2.58999 23.8623L2.10666 22.9869ZM-0.960022 26.4887V46H1.03998V26.4887H-0.960022ZM42.3563 -0.377193L1.62333 22.1115L2.58999 23.8623L43.3229 1.37368L42.3563 -0.377193ZM524 -1H44.7729V1H524V-1ZM529 22.8324V4H527V22.8324H529ZM484.454 50.3772L526.417 27.2096L525.45 25.4587L483.487 48.6263L484.454 50.3772ZM4.03998 51H482.037V49H4.03998V51ZM483.487 48.6263C483.043 48.8714 482.544 49 482.037 49V51C482.883 51 483.714 50.7857 484.454 50.3772L483.487 48.6263ZM527 22.8324C527 23.9248 526.406 24.9308 525.45 25.4587L526.417 27.2096C528.01 26.3297 529 24.653 529 22.8324H527ZM524 1C525.657 1 527 2.34314 527 4H529C529 1.23857 526.761 -1 524 -1V1ZM43.3229 1.37368C43.7669 1.12856 44.2658 1 44.7729 1V-1C43.9277 -1 43.0962 -0.785722 42.3563 -0.377193L43.3229 1.37368ZM-0.960022 46C-0.960022 48.7614 1.27855 51 4.03998 51V49C2.38312 49 1.03998 47.6569 1.03998 46H-0.960022ZM1.03998 26.4887C1.03998 25.3963 1.63371 24.3903 2.58999 23.8623L1.62333 22.1115C0.0295309 22.9914 -0.960022 24.6681 -0.960022 26.4887H1.03998Z" fill="#FEFEFE" mask="url(#path-1-inside-1_40_7289)"/>
</svg>
