<svg width="1060" height="50" viewBox="0 0 1060 50" fill="none" xmlns="http://www.w3.org/2000/svg">
<mask id="path-1-inside-1_750_180" fill="white">
<path fill-rule="evenodd" clip-rule="evenodd" d="M6 50C2.68629 50 0 47.3137 0 44V27.67C0 25.7676 0.902175 23.9779 2.43152 22.8465L31.7227 1.17652C32.7555 0.412402 34.0063 0 35.2911 0H1054C1057.31 0 1060 2.68629 1060 6V20.6886C1060 22.591 1059.1 24.3807 1057.57 25.5121L1026.06 48.8235C1025.03 49.5876 1023.77 50 1022.49 50H6ZM1059.25 49.1485C1058.88 49.4192 1059.07 50 1059.53 50V50C1059.79 50 1060 49.7887 1060 49.5279V49.5279C1060 49.1404 1059.56 48.918 1059.25 49.1485V49.1485Z"/>
</mask>
<path d="M1026.06 48.8235L1026.65 49.6274L1026.06 48.8235ZM1057.57 25.5121L1058.16 26.316L1057.57 25.5121ZM31.7227 1.17652L32.3174 1.98043L31.7227 1.17652ZM2.43152 22.8465L1.83678 22.0426L2.43152 22.8465ZM-1 27.67V44H1V27.67H-1ZM31.1279 0.372605L1.83678 22.0426L3.02627 23.6504L32.3174 1.98043L31.1279 0.372605ZM1054 -1H35.2911V1H1054V-1ZM1061 20.6886V6H1059V20.6886H1061ZM1026.65 49.6274L1058.16 26.316L1056.97 24.7082L1025.46 48.0196L1026.65 49.6274ZM6 51H1022.49V49H6V51ZM1061 49.5279C1061 48.3193 1059.62 47.6257 1058.65 48.3446L1059.84 49.9524C1059.49 50.2102 1059 49.9614 1059 49.5279H1061ZM1059.53 51C1060.34 51 1061 50.3409 1061 49.5279H1059C1059 49.2364 1059.24 49 1059.53 49V51ZM1059.53 49C1060.04 49 1060.25 49.6496 1059.84 49.9524L1058.65 48.3446C1057.51 49.1888 1058.11 51 1059.53 51V49ZM1025.46 48.0196C1024.6 48.6563 1023.56 49 1022.49 49V51C1023.99 51 1025.45 50.5189 1026.65 49.6274L1025.46 48.0196ZM1059 20.6886C1059 22.274 1058.25 23.7653 1056.97 24.7082L1058.16 26.316C1059.95 24.996 1061 22.9081 1061 20.6886H1059ZM1054 1C1056.76 1 1059 3.23857 1059 6H1061C1061 2.134 1057.87 -1 1054 -1V1ZM32.3174 1.98043C33.1781 1.34366 34.2205 1 35.2911 1V-1C33.7922 -1 32.3329 -0.518859 31.1279 0.372605L32.3174 1.98043ZM-1 44C-1 47.866 2.13401 51 6 51V49C3.23858 49 1 46.7614 1 44H-1ZM1 27.67C1 26.0847 1.75181 24.5933 3.02627 23.6504L1.83678 22.0426C0.0525371 23.3626 -1 25.4505 -1 27.67H1Z" fill="#FEFEFE" mask="url(#path-1-inside-1_750_180)"/>
</svg>
