<svg width="910" height="50" viewBox="0 0 910 50" fill="none" xmlns="http://www.w3.org/2000/svg">
<mask id="path-1-inside-1_750_191" fill="white">
<path fill-rule="evenodd" clip-rule="evenodd" d="M6 50C2.68629 50 0 47.3137 0 44V27.67C0 25.7676 0.902175 23.9779 2.43152 22.8465L31.7227 1.17652C32.7555 0.412402 34.0064 0 35.2912 0H904C907.314 0 910 2.68629 910 6V22.1683C910 24.0706 909.098 25.8603 907.568 26.9917L878.059 48.8235C877.026 49.5876 875.775 50 874.49 50H6Z"/>
</mask>
<path d="M878.059 48.8235L878.653 49.6274L878.059 48.8235ZM907.568 26.9917L908.163 27.7957L907.568 26.9917ZM31.7227 1.17652L32.3174 1.98043L31.7227 1.17652ZM2.43152 22.8465L1.83678 22.0426L2.43152 22.8465ZM-1 27.67V44H1V27.67H-1ZM31.1279 0.372605L1.83678 22.0426L3.02627 23.6504L32.3174 1.98043L31.1279 0.372605ZM904 -1H35.2912V1H904V-1ZM911 22.1683V6H909V22.1683H911ZM878.653 49.6274L908.163 27.7957L906.974 26.1878L877.464 48.0196L878.653 49.6274ZM6 51H874.49V49H6V51ZM877.464 48.0196C876.603 48.6563 875.561 49 874.49 49V51C875.989 51 877.448 50.5189 878.653 49.6274L877.464 48.0196ZM909 22.1683C909 23.7536 908.248 25.245 906.974 26.1878L908.163 27.7957C909.947 26.4757 911 24.3877 911 22.1683H909ZM904 1C906.761 1 909 3.23858 909 6H911C911 2.13401 907.866 -1 904 -1V1ZM32.3174 1.98043C33.1781 1.34367 34.2205 1 35.2912 1V-1C33.7923 -1 32.3329 -0.518866 31.1279 0.372605L32.3174 1.98043ZM-1 44C-1 47.866 2.13401 51 6 51V49C3.23858 49 1 46.7614 1 44H-1ZM1 27.67C1 26.0847 1.75181 24.5933 3.02627 23.6504L1.83678 22.0426C0.0525371 23.3626 -1 25.4505 -1 27.67H1Z" fill="#FEFEFE" mask="url(#path-1-inside-1_750_191)"/>
</svg>
