<svg width="160" height="50" viewBox="0 0 160 50" fill="none" xmlns="http://www.w3.org/2000/svg">
<path fill-rule="evenodd" clip-rule="evenodd" d="M4 50C1.79086 50 0 48.2091 0 46V17.1826C0 15.8775 0.636653 14.6545 1.70569 13.9059L20.5323 0.723392C21.2048 0.252555 22.0058 0 22.8266 0H156C158.209 0 160 1.79086 160 4V32.266C160 33.5711 159.363 34.7941 158.294 35.5426L138.68 49.2766C138.008 49.7474 137.207 50 136.386 50H4ZM159.46 49.3757C159.185 49.5681 159.321 50 159.657 50C159.846 50 160 49.8464 160 49.6568C160 49.3792 159.687 49.2164 159.46 49.3757ZM0 0.154396C0 0.0691256 0.0691256 0 0.154396 0C0.30534 0 0.3666 0.194292 0.242954 0.28087C0.140626 0.352521 0 0.279316 0 0.154396Z" fill="#FEFEFE"/>
</svg>
