<svg width="100%" height="auto" viewBox="0 0 394 50" fill="none" xmlns="http://www.w3.org/2000/svg" preserveaspectratio='none'>
<mask id="path-1-inside-1_796_4063" fill="white">
<path fill-rule="evenodd" clip-rule="evenodd" d="M4 50C1.79086 50 0 48.2091 0 46V26.1443C0 24.8761 0.601448 23.6829 1.62102 22.9287L31.5533 0.784346C32.2419 0.274935 33.0758 0 33.9323 0H390C392.209 0 394 1.79087 394 4V23.1767C394 24.445 393.399 25.6381 392.379 26.3924L361.529 49.2157C360.84 49.7251 360.007 50 359.15 50H4Z"/>
</mask>
<path d="M392.379 26.3924L391.784 25.5885L392.379 26.3924ZM-1 26.1443V46H1V26.1443H-1ZM30.9585 -0.0195678L1.02627 22.1247L2.21576 23.7326L32.148 1.58826L30.9585 -0.0195678ZM390 -1H33.9323V1H390V-1ZM395 23.1767V4H393V23.1767H395ZM362.124 50.0196L392.974 27.1963L391.784 25.5885L360.934 48.4117L362.124 50.0196ZM4 51H359.15V49H4V51ZM360.934 48.4117C360.418 48.7938 359.792 49 359.15 49V51C360.221 51 361.263 50.6563 362.124 50.0196L360.934 48.4117ZM393 23.1767C393 24.1279 392.549 25.0228 391.784 25.5885L392.974 27.1963C394.248 26.2534 395 24.7621 395 23.1767H393ZM390 1C391.657 1 393 2.34315 393 4H395C395 1.23858 392.761 -1 390 -1V1ZM32.148 1.58826C32.6645 1.2062 33.2899 1 33.9323 1V-1C32.8616 -1 31.8193 -0.65633 30.9585 -0.0195678L32.148 1.58826ZM-1 46C-1 48.7614 1.23857 51 4 51V49C2.34315 49 1 47.6569 1 46H-1ZM1 26.1443C1 25.1931 1.45109 24.2983 2.21576 23.7326L1.02627 22.1247C-0.248189 23.0676 -1 24.559 -1 26.1443H1Z" fill="#FEFEFE" mask="url(#path-1-inside-1_796_4063)"/>
</svg>
