<svg width="536" height="40" viewBox="0 0 536 40" fill="none" xmlns="http://www.w3.org/2000/svg" preserveAspectRatio="none">
<mask id="path-1-inside-1_8_5" fill="white">
<path fill-rule="evenodd" clip-rule="evenodd" d="M4 40C1.79086 40 0 38.2091 0 36V17.4226C0 15.9332 0.827479 14.5672 2.1475 13.8774L27.8346 0.45483C28.4064 0.156047 29.0419 0 29.6871 0H532C534.209 0 536 1.79087 536 4V21.9252C536 23.4146 535.173 24.7806 533.852 25.4704L506.917 39.5452C506.346 39.844 505.71 40 505.065 40H4ZM535.447 39.2867C535.096 39.4698 535.226 40 535.622 40V40C535.831 40 536 39.8307 536 39.6218V39.6218C536 39.3377 535.698 39.1551 535.447 39.2867V39.2867ZM0 0.132148C0 0.0591649 0.0591649 0 0.132148 0V0C0.270319 0 0.315809 0.18528 0.19335 0.249271V0.249271C0.105366 0.295246 0 0.23142 0 0.132148V0.132148Z"/>
</mask>
<path d="M506.917 39.5452L507.38 40.4315L506.917 39.5452ZM533.852 25.4704L533.389 24.5841L533.852 25.4704ZM2.1475 13.8774L1.68437 12.9911L2.1475 13.8774ZM-1 17.4226V36H1V17.4226H-1ZM27.3715 -0.431462L1.68437 12.9911L2.61062 14.7637L28.2977 1.34112L27.3715 -0.431462ZM532 -1H29.6871V1H532V-1ZM537 21.9252V4H535V21.9252H537ZM507.38 40.4315L534.316 26.3567L533.389 24.5841L506.454 38.6589L507.38 40.4315ZM4 41H505.065V39H4V41ZM-0.269776 -0.637022C0.308033 -0.938952 1 -0.519791 1 0.132148H-1C-1 0.98263 -0.0972998 1.52944 0.656476 1.13556L-0.269776 -0.637022ZM0.132148 -1C-0.493119 -1 -1 -0.49312 -1 0.132148H1C1 0.61145 0.611449 1 0.132148 1V-1ZM0.132148 1C-0.775251 1 -1.074 -0.216781 -0.269776 -0.637022L0.656476 1.13556C1.70562 0.587342 1.31589 -1 0.132148 -1V1ZM537 39.6218C537 38.5865 535.901 37.9209 534.984 38.4004L535.91 40.1729C535.496 40.3893 535 40.0889 535 39.6218H537ZM535.622 41C536.383 41 537 40.383 537 39.6218H535C535 39.2784 535.278 39 535.622 39V41ZM535.622 39C536.272 39 536.486 39.8718 535.91 40.1729L534.984 38.4004C533.706 39.0677 534.181 41 535.622 41V39ZM506.454 38.6589C506.025 38.883 505.549 39 505.065 39V41C505.871 41 506.666 40.8049 507.38 40.4315L506.454 38.6589ZM535 21.9252C535 23.0422 534.379 24.0668 533.389 24.5841L534.316 26.3567C535.966 25.4945 537 23.7869 537 21.9252H535ZM532 1C533.657 1 535 2.34315 535 4H537C537 1.23858 534.761 -1 532 -1V1ZM28.2977 1.34112C28.7266 1.11703 29.2032 1 29.6871 1V-1C28.8806 -1 28.0862 -0.80494 27.3715 -0.431462L28.2977 1.34112ZM-1 36C-1 38.7614 1.23858 41 4 41V39C2.34314 39 1 37.6569 1 36H-1ZM1 17.4226C1 16.3056 1.62061 15.2811 2.61062 14.7637L1.68437 12.9911C0.0343488 13.8534 -1 15.5609 -1 17.4226H1Z" fill="#404040" mask="url(#path-1-inside-1_8_5)"/>
</svg>
