<svg width="18" height="18" viewBox="0 0 18 18" fill="none" xmlns="http://www.w3.org/2000/svg">
<g id="copy 7" clip-path="url(#clip0_796_3422)">
<path id="Vector" d="M0.5 0H0V0.45H0.5V0Z" fill="#707070"/>
<path id="Vector_2" d="M1 0H0.5V0.45H1V0Z" fill="#707070"/>
<path id="Vector_3" d="M1.5 0H1V0.45H1.5V0Z" fill="#707070"/>
<path id="Vector_4" d="M1.99609 0H1.49609V0.45H1.99609V0Z" fill="#707070"/>
<path id="Vector_5" d="M2.5 0H2V0.45H2.5V0Z" fill="#707070"/>
<path id="Vector_6" d="M3 0H2.5V0.45H3V0Z" fill="#707070"/>
<path id="Vector_7" d="M3.50391 0H3.00391V0.45H3.50391V0Z" fill="#707070"/>
<path id="Vector_8" d="M4 0H3.5V0.45H4V0Z" fill="#707070"/>
<path id="Vector_9" d="M4.5 0H4V0.45H4.5V0Z" fill="#707070"/>
<path id="Vector_10" d="M5 0H4.5V0.45H5V0Z" fill="#707070"/>
<path id="Vector_11" d="M5.5 0H5V0.45H5.5V0Z" fill="#707070"/>
<path id="Vector_12" d="M6 0H5.5V0.45H6V0Z" fill="#707070"/>
<path id="Vector_13" d="M6.49609 0H5.99609V0.45H6.49609V0Z" fill="#707070"/>
<path id="Vector_14" d="M7 0H6.5V0.45H7V0Z" fill="#707070"/>
<path id="Vector_15" d="M7.5 0H7V0.45H7.5V0Z" fill="#707070"/>
<path id="Vector_16" d="M8.00391 0H7.50391V0.45H8.00391V0Z" fill="#707070"/>
<path id="Vector_17" d="M8.5 0H8V0.45H8.5V0Z" fill="#707070"/>
<path id="Vector_18" d="M9 0H8.5V0.45H9V0Z" fill="#707070"/>
<path id="Vector_19" d="M9.5 0H9V0.45H9.5V0Z" fill="#707070"/>
<path id="Vector_20" d="M10 0H9.5V0.45H10V0Z" fill="#707070"/>
<path id="Vector_21" d="M10.5 0H10V0.45H10.5V0Z" fill="#707070"/>
<path id="Vector_22" d="M10.9961 0H10.4961V0.45H10.9961V0Z" fill="#707070"/>
<path id="Vector_23" d="M11.5 0H11V0.45H11.5V0Z" fill="#707070"/>
<path id="Vector_24" d="M12 0H11.5V0.45H12V0Z" fill="#707070"/>
<path id="Vector_25" d="M0.5 0.449951H0V0.899951H0.5V0.449951Z" fill="#707070"/>
<path id="Vector_26" d="M1 0.450195H0.5V0.900195H1V0.450195Z" fill="#707070"/>
<path id="Vector_27" d="M1.5 0.450195H1V0.900195H1.5V0.450195Z" fill="#707070"/>
<path id="Vector_28" d="M1.99609 0.450195H1.49609V0.900195H1.99609V0.450195Z" fill="#707070"/>
<path id="Vector_29" d="M2.5 0.450195H2V0.900195H2.5V0.450195Z" fill="#707070"/>
<path id="Vector_30" d="M3 0.450195H2.5V0.900195H3V0.450195Z" fill="#707070"/>
<path id="Vector_31" d="M3.50391 0.450195H3.00391V0.900195H3.50391V0.450195Z" fill="#707070"/>
<path id="Vector_32" d="M4 0.450195H3.5V0.900195H4V0.450195Z" fill="#707070"/>
<path id="Vector_33" d="M4.5 0.450195H4V0.900195H4.5V0.450195Z" fill="#707070"/>
<path id="Vector_34" d="M5 0.449951H4.5V0.899951H5V0.449951Z" fill="#707070"/>
<path id="Vector_35" d="M5.5 0.450195H5V0.900195H5.5V0.450195Z" fill="#707070"/>
<path id="Vector_36" d="M6 0.450195H5.5V0.900195H6V0.450195Z" fill="#707070"/>
<path id="Vector_37" d="M6.49609 0.450195H5.99609V0.900195H6.49609V0.450195Z" fill="#707070"/>
<path id="Vector_38" d="M7 0.450195H6.5V0.900195H7V0.450195Z" fill="#707070"/>
<path id="Vector_39" d="M7.5 0.450195H7V0.900195H7.5V0.450195Z" fill="#707070"/>
<path id="Vector_40" d="M8.00391 0.450195H7.50391V0.900195H8.00391V0.450195Z" fill="#707070"/>
<path id="Vector_41" d="M8.5 0.450195H8V0.900195H8.5V0.450195Z" fill="#707070"/>
<path id="Vector_42" d="M9 0.450195H8.5V0.900195H9V0.450195Z" fill="#707070"/>
<path id="Vector_43" d="M9.5 0.449951H9V0.899951H9.5V0.449951Z" fill="#707070"/>
<path id="Vector_44" d="M10 0.450195H9.5V0.900195H10V0.450195Z" fill="#707070"/>
<path id="Vector_45" d="M10.5 0.450195H10V0.900195H10.5V0.450195Z" fill="#707070"/>
<path id="Vector_46" d="M10.9961 0.450195H10.4961V0.900195H10.9961V0.450195Z" fill="#707070"/>
<path id="Vector_47" d="M11.5 0.450195H11V0.900195H11.5V0.450195Z" fill="#707070"/>
<path id="Vector_48" d="M12 0.450195H11.5V0.900195H12V0.450195Z" fill="#707070"/>
<path id="Vector_49" d="M0.5 0.900024H0V1.35002H0.5V0.900024Z" fill="#707070"/>
<path id="Vector_50" d="M1 0.899902H0.5V1.3499H1V0.899902Z" fill="#707070"/>
<path id="Vector_51" d="M1.5 0.899902H1V1.3499H1.5V0.899902Z" fill="#707070"/>
<path id="Vector_52" d="M1.99609 0.899902H1.49609V1.3499H1.99609V0.899902Z" fill="#707070"/>
<path id="Vector_53" d="M2.5 0.899902H2V1.3499H2.5V0.899902Z" fill="#707070"/>
<path id="Vector_54" d="M3 0.899902H2.5V1.3499H3V0.899902Z" fill="#707070"/>
<path id="Vector_55" d="M3.50391 0.899902H3.00391V1.3499H3.50391V0.899902Z" fill="#707070"/>
<path id="Vector_56" d="M4 0.899902H3.5V1.3499H4V0.899902Z" fill="#707070"/>
<path id="Vector_57" d="M4.5 0.899902H4V1.3499H4.5V0.899902Z" fill="#707070"/>
<path id="Vector_58" d="M5 0.900024H4.5V1.35002H5V0.900024Z" fill="#707070"/>
<path id="Vector_59" d="M5.5 0.899902H5V1.3499H5.5V0.899902Z" fill="#707070"/>
<path id="Vector_60" d="M6 0.899902H5.5V1.3499H6V0.899902Z" fill="#707070"/>
<path id="Vector_61" d="M6.49609 0.899902H5.99609V1.3499H6.49609V0.899902Z" fill="#707070"/>
<path id="Vector_62" d="M7 0.899902H6.5V1.3499H7V0.899902Z" fill="#707070"/>
<path id="Vector_63" d="M7.5 0.899902H7V1.3499H7.5V0.899902Z" fill="#707070"/>
<path id="Vector_64" d="M8.00391 0.899902H7.50391V1.3499H8.00391V0.899902Z" fill="#707070"/>
<path id="Vector_65" d="M8.5 0.899902H8V1.3499H8.5V0.899902Z" fill="#707070"/>
<path id="Vector_66" d="M9 0.899902H8.5V1.3499H9V0.899902Z" fill="#707070"/>
<path id="Vector_67" d="M9.5 0.900024H9V1.35002H9.5V0.900024Z" fill="#707070"/>
<path id="Vector_68" d="M10 0.899902H9.5V1.3499H10V0.899902Z" fill="#707070"/>
<path id="Vector_69" d="M10.5 0.899902H10V1.3499H10.5V0.899902Z" fill="#707070"/>
<path id="Vector_70" d="M10.9961 0.899902H10.4961V1.3499H10.9961V0.899902Z" fill="#707070"/>
<path id="Vector_71" d="M11.5 0.899902H11V1.3499H11.5V0.899902Z" fill="#707070"/>
<path id="Vector_72" d="M12 0.899902H11.5V1.3499H12V0.899902Z" fill="#707070"/>
<path id="Vector_73" d="M0.5 1.34998H0V1.79998H0.5V1.34998Z" fill="#707070"/>
<path id="Vector_74" d="M1 1.3501H0.5V1.8001H1V1.3501Z" fill="#707070"/>
<path id="Vector_75" d="M1.5 1.3501H1V1.8001H1.5V1.3501Z" fill="#707070"/>
<path id="Vector_76" d="M1.99609 1.3501H1.49609V1.8001H1.99609V1.3501Z" fill="#707070"/>
<path id="Vector_77" d="M2.5 1.3501H2V1.8001H2.5V1.3501Z" fill="#707070"/>
<path id="Vector_78" d="M3 1.3501H2.5V1.8001H3V1.3501Z" fill="#707070"/>
<path id="Vector_79" d="M3.50391 1.3501H3.00391V1.8001H3.50391V1.3501Z" fill="#707070"/>
<path id="Vector_80" d="M4 1.3501H3.5V1.8001H4V1.3501Z" fill="#707070"/>
<path id="Vector_81" d="M4.5 1.3501H4V1.8001H4.5V1.3501Z" fill="#707070"/>
<path id="Vector_82" d="M5 1.34998H4.5V1.79998H5V1.34998Z" fill="#707070"/>
<path id="Vector_83" d="M5.5 1.3501H5V1.8001H5.5V1.3501Z" fill="#707070"/>
<path id="Vector_84" d="M6 1.3501H5.5V1.8001H6V1.3501Z" fill="#707070"/>
<path id="Vector_85" d="M6.49609 1.3501H5.99609V1.8001H6.49609V1.3501Z" fill="#707070"/>
<path id="Vector_86" d="M7 1.3501H6.5V1.8001H7V1.3501Z" fill="#707070"/>
<path id="Vector_87" d="M7.5 1.3501H7V1.8001H7.5V1.3501Z" fill="#707070"/>
<path id="Vector_88" d="M8.00391 1.3501H7.50391V1.8001H8.00391V1.3501Z" fill="#707070"/>
<path id="Vector_89" d="M8.5 1.3501H8V1.8001H8.5V1.3501Z" fill="#707070"/>
<path id="Vector_90" d="M9 1.3501H8.5V1.8001H9V1.3501Z" fill="#707070"/>
<path id="Vector_91" d="M9.5 1.34998H9V1.79998H9.5V1.34998Z" fill="#707070"/>
<path id="Vector_92" d="M10 1.3501H9.5V1.8001H10V1.3501Z" fill="#707070"/>
<path id="Vector_93" d="M10.5 1.3501H10V1.8001H10.5V1.3501Z" fill="#707070"/>
<path id="Vector_94" d="M10.9961 1.3501H10.4961V1.8001H10.9961V1.3501Z" fill="#707070"/>
<path id="Vector_95" d="M11.5 1.3501H11V1.8001H11.5V1.3501Z" fill="#707070"/>
<path id="Vector_96" d="M12 1.3501H11.5V1.8001H12V1.3501Z" fill="#707070"/>
<path id="Vector_97" d="M0.5 1.80005H0V2.25005H0.5V1.80005Z" fill="#707070"/>
<path id="Vector_98" d="M1 1.7998H0.5V2.2498H1V1.7998Z" fill="#707070"/>
<path id="Vector_99" d="M1.5 1.7998H1V2.2498H1.5V1.7998Z" fill="#707070"/>
<path id="Vector_100" d="M1.99609 1.7998H1.49609V2.2498H1.99609V1.7998Z" fill="#707070"/>
<path id="Vector_101" d="M10.5 1.7998H10V2.2498H10.5V1.7998Z" fill="#707070"/>
<path id="Vector_102" d="M10.9961 1.7998H10.4961V2.2498H10.9961V1.7998Z" fill="#707070"/>
<path id="Vector_103" d="M11.5 1.7998H11V2.2498H11.5V1.7998Z" fill="#707070"/>
<path id="Vector_104" d="M12 1.7998H11.5V2.2498H12V1.7998Z" fill="#707070"/>
<path id="Vector_105" d="M0.5 2.25H0V2.7H0.5V2.25Z" fill="#707070"/>
<path id="Vector_106" d="M1 2.25H0.5V2.7H1V2.25Z" fill="#707070"/>
<path id="Vector_107" d="M1.5 2.25H1V2.7H1.5V2.25Z" fill="#707070"/>
<path id="Vector_108" d="M1.99609 2.25H1.49609V2.7H1.99609V2.25Z" fill="#707070"/>
<path id="Vector_109" d="M10.5 2.25H10V2.7H10.5V2.25Z" fill="#707070"/>
<path id="Vector_110" d="M10.9961 2.25H10.4961V2.7H10.9961V2.25Z" fill="#707070"/>
<path id="Vector_111" d="M11.5 2.25H11V2.7H11.5V2.25Z" fill="#707070"/>
<path id="Vector_112" d="M12 2.25H11.5V2.7H12V2.25Z" fill="#707070"/>
<path id="Vector_113" d="M0.5 2.69995H0V3.14995H0.5V2.69995Z" fill="#707070"/>
<path id="Vector_114" d="M1 2.7002H0.5V3.1502H1V2.7002Z" fill="#707070"/>
<path id="Vector_115" d="M1.5 2.7002H1V3.1502H1.5V2.7002Z" fill="#707070"/>
<path id="Vector_116" d="M1.99609 2.7002H1.49609V3.1502H1.99609V2.7002Z" fill="#707070"/>
<path id="Vector_117" d="M10.5 2.7002H10V3.1502H10.5V2.7002Z" fill="#707070"/>
<path id="Vector_118" d="M10.9961 2.7002H10.4961V3.1502H10.9961V2.7002Z" fill="#707070"/>
<path id="Vector_119" d="M11.5 2.7002H11V3.1502H11.5V2.7002Z" fill="#707070"/>
<path id="Vector_120" d="M12 2.7002H11.5V3.1502H12V2.7002Z" fill="#707070"/>
<path id="Vector_121" d="M0.5 3.15002H0V3.60002H0.5V3.15002Z" fill="#707070"/>
<path id="Vector_122" d="M1 3.1499H0.5V3.5999H1V3.1499Z" fill="#707070"/>
<path id="Vector_123" d="M1.5 3.1499H1V3.5999H1.5V3.1499Z" fill="#707070"/>
<path id="Vector_124" d="M1.99609 3.1499H1.49609V3.5999H1.99609V3.1499Z" fill="#707070"/>
<path id="Vector_125" d="M10.5 3.1499H10V3.5999H10.5V3.1499Z" fill="#707070"/>
<path id="Vector_126" d="M10.9961 3.1499H10.4961V3.5999H10.9961V3.1499Z" fill="#707070"/>
<path id="Vector_127" d="M11.5 3.1499H11V3.5999H11.5V3.1499Z" fill="#707070"/>
<path id="Vector_128" d="M12 3.1499H11.5V3.5999H12V3.1499Z" fill="#707070"/>
<path id="Vector_129" d="M0.5 3.59998H0V4.04998H0.5V3.59998Z" fill="#707070"/>
<path id="Vector_130" d="M1 3.6001H0.5V4.0501H1V3.6001Z" fill="#707070"/>
<path id="Vector_131" d="M1.5 3.6001H1V4.0501H1.5V3.6001Z" fill="#707070"/>
<path id="Vector_132" d="M1.99609 3.6001H1.49609V4.0501H1.99609V3.6001Z" fill="#707070"/>
<path id="Vector_133" d="M6.49609 3.6001H5.99609V4.0501H6.49609V3.6001Z" fill="#707070"/>
<path id="Vector_134" d="M7 3.6001H6.5V4.0501H7V3.6001Z" fill="#707070"/>
<path id="Vector_135" d="M7.5 3.6001H7V4.0501H7.5V3.6001Z" fill="#707070"/>
<path id="Vector_136" d="M8.00391 3.6001H7.50391V4.0501H8.00391V3.6001Z" fill="#707070"/>
<path id="Vector_137" d="M8.5 3.6001H8V4.0501H8.5V3.6001Z" fill="#707070"/>
<path id="Vector_138" d="M9 3.6001H8.5V4.0501H9V3.6001Z" fill="#707070"/>
<path id="Vector_139" d="M9.5 3.59998H9V4.04998H9.5V3.59998Z" fill="#707070"/>
<path id="Vector_140" d="M10 3.6001H9.5V4.0501H10V3.6001Z" fill="#707070"/>
<path id="Vector_141" d="M10.5 3.6001H10V4.0501H10.5V3.6001Z" fill="#707070"/>
<path id="Vector_142" d="M10.9961 3.6001H10.4961V4.0501H10.9961V3.6001Z" fill="#707070"/>
<path id="Vector_143" d="M11.5 3.6001H11V4.0501H11.5V3.6001Z" fill="#707070"/>
<path id="Vector_144" d="M12 3.6001H11.5V4.0501H12V3.6001Z" fill="#707070"/>
<path id="Vector_145" d="M12.5039 3.6001H12.0039V4.0501H12.5039V3.6001Z" fill="#707070"/>
<path id="Vector_146" d="M13 3.6001H12.5V4.0501H13V3.6001Z" fill="#707070"/>
<path id="Vector_147" d="M13.5 3.6001H13V4.0501H13.5V3.6001Z" fill="#707070"/>
<path id="Vector_148" d="M14 3.59998H13.5V4.04998H14V3.59998Z" fill="#707070"/>
<path id="Vector_149" d="M0.5 4.05005H0V4.50005H0.5V4.05005Z" fill="#707070"/>
<path id="Vector_150" d="M1 4.0498H0.5V4.4998H1V4.0498Z" fill="#707070"/>
<path id="Vector_151" d="M1.5 4.0498H1V4.4998H1.5V4.0498Z" fill="#707070"/>
<path id="Vector_152" d="M1.99609 4.0498H1.49609V4.4998H1.99609V4.0498Z" fill="#707070"/>
<path id="Vector_153" d="M6.49609 4.0498H5.99609V4.4998H6.49609V4.0498Z" fill="#707070"/>
<path id="Vector_154" d="M7 4.0498H6.5V4.4998H7V4.0498Z" fill="#707070"/>
<path id="Vector_155" d="M7.5 4.0498H7V4.4998H7.5V4.0498Z" fill="#707070"/>
<path id="Vector_156" d="M8.00391 4.0498H7.50391V4.4998H8.00391V4.0498Z" fill="#707070"/>
<path id="Vector_157" d="M8.5 4.0498H8V4.4998H8.5V4.0498Z" fill="#707070"/>
<path id="Vector_158" d="M9 4.0498H8.5V4.4998H9V4.0498Z" fill="#707070"/>
<path id="Vector_159" d="M9.5 4.05005H9V4.50005H9.5V4.05005Z" fill="#707070"/>
<path id="Vector_160" d="M10 4.0498H9.5V4.4998H10V4.0498Z" fill="#707070"/>
<path id="Vector_161" d="M10.5 4.0498H10V4.4998H10.5V4.0498Z" fill="#707070"/>
<path id="Vector_162" d="M10.9961 4.0498H10.4961V4.4998H10.9961V4.0498Z" fill="#707070"/>
<path id="Vector_163" d="M11.5 4.0498H11V4.4998H11.5V4.0498Z" fill="#707070"/>
<path id="Vector_164" d="M12 4.0498H11.5V4.4998H12V4.0498Z" fill="#707070"/>
<path id="Vector_165" d="M12.5039 4.0498H12.0039V4.4998H12.5039V4.0498Z" fill="#707070"/>
<path id="Vector_166" d="M13 4.0498H12.5V4.4998H13V4.0498Z" fill="#707070"/>
<path id="Vector_167" d="M13.5 4.0498H13V4.4998H13.5V4.0498Z" fill="#707070"/>
<path id="Vector_168" d="M14 4.05005H13.5V4.50005H14V4.05005Z" fill="#707070"/>
<path id="Vector_169" d="M0.5 4.5H0V4.95H0.5V4.5Z" fill="#707070"/>
<path id="Vector_170" d="M1 4.5H0.5V4.95H1V4.5Z" fill="#707070"/>
<path id="Vector_171" d="M1.5 4.5H1V4.95H1.5V4.5Z" fill="#707070"/>
<path id="Vector_172" d="M1.99609 4.5H1.49609V4.95H1.99609V4.5Z" fill="#707070"/>
<path id="Vector_173" d="M6.49609 4.5H5.99609V4.95H6.49609V4.5Z" fill="#707070"/>
<path id="Vector_174" d="M7 4.5H6.5V4.95H7V4.5Z" fill="#707070"/>
<path id="Vector_175" d="M7.5 4.5H7V4.95H7.5V4.5Z" fill="#707070"/>
<path id="Vector_176" d="M8.00391 4.5H7.50391V4.95H8.00391V4.5Z" fill="#707070"/>
<path id="Vector_177" d="M8.5 4.5H8V4.95H8.5V4.5Z" fill="#707070"/>
<path id="Vector_178" d="M9 4.5H8.5V4.95H9V4.5Z" fill="#707070"/>
<path id="Vector_179" d="M9.5 4.5H9V4.95H9.5V4.5Z" fill="#707070"/>
<path id="Vector_180" d="M10 4.5H9.5V4.95H10V4.5Z" fill="#707070"/>
<path id="Vector_181" d="M10.5 4.5H10V4.95H10.5V4.5Z" fill="#707070"/>
<path id="Vector_182" d="M10.9961 4.5H10.4961V4.95H10.9961V4.5Z" fill="#707070"/>
<path id="Vector_183" d="M11.5 4.5H11V4.95H11.5V4.5Z" fill="#707070"/>
<path id="Vector_184" d="M12 4.5H11.5V4.95H12V4.5Z" fill="#707070"/>
<path id="Vector_185" d="M12.5039 4.5H12.0039V4.95H12.5039V4.5Z" fill="#707070"/>
<path id="Vector_186" d="M13 4.5H12.5V4.95H13V4.5Z" fill="#707070"/>
<path id="Vector_187" d="M13.5 4.5H13V4.95H13.5V4.5Z" fill="#707070"/>
<path id="Vector_188" d="M14 4.5H13.5V4.95H14V4.5Z" fill="#707070"/>
<path id="Vector_189" d="M0.5 4.94995H0V5.39995H0.5V4.94995Z" fill="#707070"/>
<path id="Vector_190" d="M1 4.9502H0.5V5.4002H1V4.9502Z" fill="#707070"/>
<path id="Vector_191" d="M1.5 4.9502H1V5.4002H1.5V4.9502Z" fill="#707070"/>
<path id="Vector_192" d="M1.99609 4.9502H1.49609V5.4002H1.99609V4.9502Z" fill="#707070"/>
<path id="Vector_193" d="M6.49609 4.9502H5.99609V5.4002H6.49609V4.9502Z" fill="#707070"/>
<path id="Vector_194" d="M7 4.9502H6.5V5.4002H7V4.9502Z" fill="#707070"/>
<path id="Vector_195" d="M7.5 4.9502H7V5.4002H7.5V4.9502Z" fill="#707070"/>
<path id="Vector_196" d="M8.00391 4.9502H7.50391V5.4002H8.00391V4.9502Z" fill="#707070"/>
<path id="Vector_197" d="M8.5 4.9502H8V5.4002H8.5V4.9502Z" fill="#707070"/>
<path id="Vector_198" d="M9 4.9502H8.5V5.4002H9V4.9502Z" fill="#707070"/>
<path id="Vector_199" d="M9.5 4.94995H9V5.39995H9.5V4.94995Z" fill="#707070"/>
<path id="Vector_200" d="M10 4.9502H9.5V5.4002H10V4.9502Z" fill="#707070"/>
<path id="Vector_201" d="M10.5 4.9502H10V5.4002H10.5V4.9502Z" fill="#707070"/>
<path id="Vector_202" d="M10.9961 4.9502H10.4961V5.4002H10.9961V4.9502Z" fill="#707070"/>
<path id="Vector_203" d="M11.5 4.9502H11V5.4002H11.5V4.9502Z" fill="#707070"/>
<path id="Vector_204" d="M12 4.9502H11.5V5.4002H12V4.9502Z" fill="#707070"/>
<path id="Vector_205" d="M12.5039 4.9502H12.0039V5.4002H12.5039V4.9502Z" fill="#707070"/>
<path id="Vector_206" d="M13 4.9502H12.5V5.4002H13V4.9502Z" fill="#707070"/>
<path id="Vector_207" d="M13.5 4.9502H13V5.4002H13.5V4.9502Z" fill="#707070"/>
<path id="Vector_208" d="M14 4.94995H13.5V5.39995H14V4.94995Z" fill="#707070"/>
<path id="Vector_209" d="M0.5 5.40002H0V5.85002H0.5V5.40002Z" fill="#707070"/>
<path id="Vector_210" d="M1 5.3999H0.5V5.8499H1V5.3999Z" fill="#707070"/>
<path id="Vector_211" d="M1.5 5.3999H1V5.8499H1.5V5.3999Z" fill="#707070"/>
<path id="Vector_212" d="M1.99609 5.3999H1.49609V5.8499H1.99609V5.3999Z" fill="#707070"/>
<path id="Vector_213" d="M6.49609 5.3999H5.99609V5.8499H6.49609V5.3999Z" fill="#707070"/>
<path id="Vector_214" d="M7 5.3999H6.5V5.8499H7V5.3999Z" fill="#707070"/>
<path id="Vector_215" d="M7.5 5.3999H7V5.8499H7.5V5.3999Z" fill="#707070"/>
<path id="Vector_216" d="M8.00391 5.3999H7.50391V5.8499H8.00391V5.3999Z" fill="#707070"/>
<path id="Vector_217" d="M14.5 5.3999H14V5.8499H14.5V5.3999Z" fill="#707070"/>
<path id="Vector_218" d="M15 5.3999H14.5V5.8499H15V5.3999Z" fill="#707070"/>
<path id="Vector_219" d="M15.4961 5.3999H14.9961V5.8499H15.4961V5.3999Z" fill="#707070"/>
<path id="Vector_220" d="M16 5.3999H15.5V5.8499H16V5.3999Z" fill="#707070"/>
<path id="Vector_221" d="M0.5 5.84998H0V6.29998H0.5V5.84998Z" fill="#707070"/>
<path id="Vector_222" d="M1 5.8501H0.5V6.3001H1V5.8501Z" fill="#707070"/>
<path id="Vector_223" d="M1.5 5.8501H1V6.3001H1.5V5.8501Z" fill="#707070"/>
<path id="Vector_224" d="M1.99609 5.8501H1.49609V6.3001H1.99609V5.8501Z" fill="#707070"/>
<path id="Vector_225" d="M6.49609 5.8501H5.99609V6.3001H6.49609V5.8501Z" fill="#707070"/>
<path id="Vector_226" d="M7 5.8501H6.5V6.3001H7V5.8501Z" fill="#707070"/>
<path id="Vector_227" d="M7.5 5.8501H7V6.3001H7.5V5.8501Z" fill="#707070"/>
<path id="Vector_228" d="M8.00391 5.8501H7.50391V6.3001H8.00391V5.8501Z" fill="#707070"/>
<path id="Vector_229" d="M14.5 5.8501H14V6.3001H14.5V5.8501Z" fill="#707070"/>
<path id="Vector_230" d="M15 5.8501H14.5V6.3001H15V5.8501Z" fill="#707070"/>
<path id="Vector_231" d="M15.4961 5.8501H14.9961V6.3001H15.4961V5.8501Z" fill="#707070"/>
<path id="Vector_232" d="M16 5.8501H15.5V6.3001H16V5.8501Z" fill="#707070"/>
<path id="Vector_233" d="M0.5 6.30005H0V6.75005H0.5V6.30005Z" fill="#707070"/>
<path id="Vector_234" d="M1 6.2998H0.5V6.7498H1V6.2998Z" fill="#707070"/>
<path id="Vector_235" d="M1.5 6.2998H1V6.7498H1.5V6.2998Z" fill="#707070"/>
<path id="Vector_236" d="M1.99609 6.2998H1.49609V6.7498H1.99609V6.2998Z" fill="#707070"/>
<path id="Vector_237" d="M6.49609 6.2998H5.99609V6.7498H6.49609V6.2998Z" fill="#707070"/>
<path id="Vector_238" d="M7 6.2998H6.5V6.7498H7V6.2998Z" fill="#707070"/>
<path id="Vector_239" d="M7.5 6.2998H7V6.7498H7.5V6.2998Z" fill="#707070"/>
<path id="Vector_240" d="M8.00391 6.2998H7.50391V6.7498H8.00391V6.2998Z" fill="#707070"/>
<path id="Vector_241" d="M14.5 6.2998H14V6.7498H14.5V6.2998Z" fill="#707070"/>
<path id="Vector_242" d="M15 6.2998H14.5V6.7498H15V6.2998Z" fill="#707070"/>
<path id="Vector_243" d="M15.4961 6.2998H14.9961V6.7498H15.4961V6.2998Z" fill="#707070"/>
<path id="Vector_244" d="M16 6.2998H15.5V6.7498H16V6.2998Z" fill="#707070"/>
<path id="Vector_245" d="M0.5 6.75H0V7.2H0.5V6.75Z" fill="#707070"/>
<path id="Vector_246" d="M1 6.75H0.5V7.2H1V6.75Z" fill="#707070"/>
<path id="Vector_247" d="M1.5 6.75H1V7.2H1.5V6.75Z" fill="#707070"/>
<path id="Vector_248" d="M1.99609 6.75H1.49609V7.2H1.99609V6.75Z" fill="#707070"/>
<path id="Vector_249" d="M6.49609 6.75H5.99609V7.2H6.49609V6.75Z" fill="#707070"/>
<path id="Vector_250" d="M7 6.75H6.5V7.2H7V6.75Z" fill="#707070"/>
<path id="Vector_251" d="M7.5 6.75H7V7.2H7.5V6.75Z" fill="#707070"/>
<path id="Vector_252" d="M8.00391 6.75H7.50391V7.2H8.00391V6.75Z" fill="#707070"/>
<path id="Vector_253" d="M14.5 6.75H14V7.2H14.5V6.75Z" fill="#707070"/>
<path id="Vector_254" d="M15 6.75H14.5V7.2H15V6.75Z" fill="#707070"/>
<path id="Vector_255" d="M15.4961 6.75H14.9961V7.2H15.4961V6.75Z" fill="#707070"/>
<path id="Vector_256" d="M16 6.75H15.5V7.2H16V6.75Z" fill="#707070"/>
<path id="Vector_257" d="M0.5 7.19995H0V7.64995H0.5V7.19995Z" fill="#707070"/>
<path id="Vector_258" d="M1 7.2002H0.5V7.6502H1V7.2002Z" fill="#707070"/>
<path id="Vector_259" d="M1.5 7.2002H1V7.6502H1.5V7.2002Z" fill="#707070"/>
<path id="Vector_260" d="M1.99609 7.2002H1.49609V7.6502H1.99609V7.2002Z" fill="#707070"/>
<path id="Vector_261" d="M6.49609 7.2002H5.99609V7.6502H6.49609V7.2002Z" fill="#707070"/>
<path id="Vector_262" d="M7 7.2002H6.5V7.6502H7V7.2002Z" fill="#707070"/>
<path id="Vector_263" d="M7.5 7.2002H7V7.6502H7.5V7.2002Z" fill="#707070"/>
<path id="Vector_264" d="M8.00391 7.2002H7.50391V7.6502H8.00391V7.2002Z" fill="#707070"/>
<path id="Vector_265" d="M16.5 7.2002H16V7.6502H16.5V7.2002Z" fill="#707070"/>
<path id="Vector_266" d="M17.0039 7.2002H16.5039V7.6502H17.0039V7.2002Z" fill="#707070"/>
<path id="Vector_267" d="M17.5 7.2002H17V7.6502H17.5V7.2002Z" fill="#707070"/>
<path id="Vector_268" d="M18 7.2002H17.5V7.6502H18V7.2002Z" fill="#707070"/>
<path id="Vector_269" d="M0.5 7.65002H0V8.10002H0.5V7.65002Z" fill="#707070"/>
<path id="Vector_270" d="M1 7.6499H0.5V8.0999H1V7.6499Z" fill="#707070"/>
<path id="Vector_271" d="M1.5 7.6499H1V8.0999H1.5V7.6499Z" fill="#707070"/>
<path id="Vector_272" d="M1.99609 7.6499H1.49609V8.0999H1.99609V7.6499Z" fill="#707070"/>
<path id="Vector_273" d="M6.49609 7.6499H5.99609V8.0999H6.49609V7.6499Z" fill="#707070"/>
<path id="Vector_274" d="M7 7.6499H6.5V8.0999H7V7.6499Z" fill="#707070"/>
<path id="Vector_275" d="M7.5 7.6499H7V8.0999H7.5V7.6499Z" fill="#707070"/>
<path id="Vector_276" d="M8.00391 7.6499H7.50391V8.0999H8.00391V7.6499Z" fill="#707070"/>
<path id="Vector_277" d="M16.5 7.6499H16V8.0999H16.5V7.6499Z" fill="#707070"/>
<path id="Vector_278" d="M17.0039 7.6499H16.5039V8.0999H17.0039V7.6499Z" fill="#707070"/>
<path id="Vector_279" d="M17.5 7.6499H17V8.0999H17.5V7.6499Z" fill="#707070"/>
<path id="Vector_280" d="M18 7.6499H17.5V8.0999H18V7.6499Z" fill="#707070"/>
<path id="Vector_281" d="M0.5 8.09998H0V8.54998H0.5V8.09998Z" fill="#707070"/>
<path id="Vector_282" d="M1 8.1001H0.5V8.5501H1V8.1001Z" fill="#707070"/>
<path id="Vector_283" d="M1.5 8.1001H1V8.5501H1.5V8.1001Z" fill="#707070"/>
<path id="Vector_284" d="M1.99609 8.1001H1.49609V8.5501H1.99609V8.1001Z" fill="#707070"/>
<path id="Vector_285" d="M6.49609 8.1001H5.99609V8.5501H6.49609V8.1001Z" fill="#707070"/>
<path id="Vector_286" d="M7 8.1001H6.5V8.5501H7V8.1001Z" fill="#707070"/>
<path id="Vector_287" d="M7.5 8.1001H7V8.5501H7.5V8.1001Z" fill="#707070"/>
<path id="Vector_288" d="M8.00391 8.1001H7.50391V8.5501H8.00391V8.1001Z" fill="#707070"/>
<path id="Vector_289" d="M16.5 8.1001H16V8.5501H16.5V8.1001Z" fill="#707070"/>
<path id="Vector_290" d="M17.0039 8.1001H16.5039V8.5501H17.0039V8.1001Z" fill="#707070"/>
<path id="Vector_291" d="M17.5 8.1001H17V8.5501H17.5V8.1001Z" fill="#707070"/>
<path id="Vector_292" d="M18 8.1001H17.5V8.5501H18V8.1001Z" fill="#707070"/>
<path id="Vector_293" d="M0.5 8.55005H0V9.00005H0.5V8.55005Z" fill="#707070"/>
<path id="Vector_294" d="M1 8.5498H0.5V8.9998H1V8.5498Z" fill="#707070"/>
<path id="Vector_295" d="M1.5 8.5498H1V8.9998H1.5V8.5498Z" fill="#707070"/>
<path id="Vector_296" d="M1.99609 8.5498H1.49609V8.9998H1.99609V8.5498Z" fill="#707070"/>
<path id="Vector_297" d="M6.49609 8.5498H5.99609V8.9998H6.49609V8.5498Z" fill="#707070"/>
<path id="Vector_298" d="M7 8.5498H6.5V8.9998H7V8.5498Z" fill="#707070"/>
<path id="Vector_299" d="M7.5 8.5498H7V8.9998H7.5V8.5498Z" fill="#707070"/>
<path id="Vector_300" d="M8.00391 8.5498H7.50391V8.9998H8.00391V8.5498Z" fill="#707070"/>
<path id="Vector_301" d="M16.5 8.5498H16V8.9998H16.5V8.5498Z" fill="#707070"/>
<path id="Vector_302" d="M17.0039 8.5498H16.5039V8.9998H17.0039V8.5498Z" fill="#707070"/>
<path id="Vector_303" d="M17.5 8.5498H17V8.9998H17.5V8.5498Z" fill="#707070"/>
<path id="Vector_304" d="M18 8.5498H17.5V8.9998H18V8.5498Z" fill="#707070"/>
<path id="Vector_305" d="M0.5 9H0V9.45H0.5V9Z" fill="#707070"/>
<path id="Vector_306" d="M1 9H0.5V9.45H1V9Z" fill="#707070"/>
<path id="Vector_307" d="M1.5 9H1V9.45H1.5V9Z" fill="#707070"/>
<path id="Vector_308" d="M1.99609 9H1.49609V9.45H1.99609V9Z" fill="#707070"/>
<path id="Vector_309" d="M6.49609 9H5.99609V9.45H6.49609V9Z" fill="#707070"/>
<path id="Vector_310" d="M7 9H6.5V9.45H7V9Z" fill="#707070"/>
<path id="Vector_311" d="M7.5 9H7V9.45H7.5V9Z" fill="#707070"/>
<path id="Vector_312" d="M8.00391 9H7.50391V9.45H8.00391V9Z" fill="#707070"/>
<path id="Vector_313" d="M16.5 9H16V9.45H16.5V9Z" fill="#707070"/>
<path id="Vector_314" d="M17.0039 9H16.5039V9.45H17.0039V9Z" fill="#707070"/>
<path id="Vector_315" d="M17.5 9H17V9.45H17.5V9Z" fill="#707070"/>
<path id="Vector_316" d="M18 9H17.5V9.45H18V9Z" fill="#707070"/>
<path id="Vector_317" d="M0.5 9.44995H0V9.89995H0.5V9.44995Z" fill="#707070"/>
<path id="Vector_318" d="M1 9.4502H0.5V9.9002H1V9.4502Z" fill="#707070"/>
<path id="Vector_319" d="M1.5 9.4502H1V9.9002H1.5V9.4502Z" fill="#707070"/>
<path id="Vector_320" d="M1.99609 9.4502H1.49609V9.9002H1.99609V9.4502Z" fill="#707070"/>
<path id="Vector_321" d="M6.49609 9.4502H5.99609V9.9002H6.49609V9.4502Z" fill="#707070"/>
<path id="Vector_322" d="M7 9.4502H6.5V9.9002H7V9.4502Z" fill="#707070"/>
<path id="Vector_323" d="M7.5 9.4502H7V9.9002H7.5V9.4502Z" fill="#707070"/>
<path id="Vector_324" d="M8.00391 9.4502H7.50391V9.9002H8.00391V9.4502Z" fill="#707070"/>
<path id="Vector_325" d="M16.5 9.4502H16V9.9002H16.5V9.4502Z" fill="#707070"/>
<path id="Vector_326" d="M17.0039 9.4502H16.5039V9.9002H17.0039V9.4502Z" fill="#707070"/>
<path id="Vector_327" d="M17.5 9.4502H17V9.9002H17.5V9.4502Z" fill="#707070"/>
<path id="Vector_328" d="M18 9.4502H17.5V9.9002H18V9.4502Z" fill="#707070"/>
<path id="Vector_329" d="M0.5 9.90002H0V10.35H0.5V9.90002Z" fill="#707070"/>
<path id="Vector_330" d="M1 9.8999H0.5V10.3499H1V9.8999Z" fill="#707070"/>
<path id="Vector_331" d="M1.5 9.8999H1V10.3499H1.5V9.8999Z" fill="#707070"/>
<path id="Vector_332" d="M1.99609 9.8999H1.49609V10.3499H1.99609V9.8999Z" fill="#707070"/>
<path id="Vector_333" d="M6.49609 9.8999H5.99609V10.3499H6.49609V9.8999Z" fill="#707070"/>
<path id="Vector_334" d="M7 9.8999H6.5V10.3499H7V9.8999Z" fill="#707070"/>
<path id="Vector_335" d="M7.5 9.8999H7V10.3499H7.5V9.8999Z" fill="#707070"/>
<path id="Vector_336" d="M8.00391 9.8999H7.50391V10.3499H8.00391V9.8999Z" fill="#707070"/>
<path id="Vector_337" d="M16.5 9.8999H16V10.3499H16.5V9.8999Z" fill="#707070"/>
<path id="Vector_338" d="M17.0039 9.8999H16.5039V10.3499H17.0039V9.8999Z" fill="#707070"/>
<path id="Vector_339" d="M17.5 9.8999H17V10.3499H17.5V9.8999Z" fill="#707070"/>
<path id="Vector_340" d="M18 9.8999H17.5V10.3499H18V9.8999Z" fill="#707070"/>
<path id="Vector_341" d="M0.5 10.35H0V10.8H0.5V10.35Z" fill="#707070"/>
<path id="Vector_342" d="M1 10.3501H0.5V10.8001H1V10.3501Z" fill="#707070"/>
<path id="Vector_343" d="M1.5 10.3501H1V10.8001H1.5V10.3501Z" fill="#707070"/>
<path id="Vector_344" d="M1.99609 10.3501H1.49609V10.8001H1.99609V10.3501Z" fill="#707070"/>
<path id="Vector_345" d="M6.49609 10.3501H5.99609V10.8001H6.49609V10.3501Z" fill="#707070"/>
<path id="Vector_346" d="M7 10.3501H6.5V10.8001H7V10.3501Z" fill="#707070"/>
<path id="Vector_347" d="M7.5 10.3501H7V10.8001H7.5V10.3501Z" fill="#707070"/>
<path id="Vector_348" d="M8.00391 10.3501H7.50391V10.8001H8.00391V10.3501Z" fill="#707070"/>
<path id="Vector_349" d="M16.5 10.3501H16V10.8001H16.5V10.3501Z" fill="#707070"/>
<path id="Vector_350" d="M17.0039 10.3501H16.5039V10.8001H17.0039V10.3501Z" fill="#707070"/>
<path id="Vector_351" d="M17.5 10.3501H17V10.8001H17.5V10.3501Z" fill="#707070"/>
<path id="Vector_352" d="M18 10.3501H17.5V10.8001H18V10.3501Z" fill="#707070"/>
<path id="Vector_353" d="M0.5 10.8H0V11.25H0.5V10.8Z" fill="#707070"/>
<path id="Vector_354" d="M1 10.7998H0.5V11.2498H1V10.7998Z" fill="#707070"/>
<path id="Vector_355" d="M1.5 10.7998H1V11.2498H1.5V10.7998Z" fill="#707070"/>
<path id="Vector_356" d="M1.99609 10.7998H1.49609V11.2498H1.99609V10.7998Z" fill="#707070"/>
<path id="Vector_357" d="M6.49609 10.7998H5.99609V11.2498H6.49609V10.7998Z" fill="#707070"/>
<path id="Vector_358" d="M7 10.7998H6.5V11.2498H7V10.7998Z" fill="#707070"/>
<path id="Vector_359" d="M7.5 10.7998H7V11.2498H7.5V10.7998Z" fill="#707070"/>
<path id="Vector_360" d="M8.00391 10.7998H7.50391V11.2498H8.00391V10.7998Z" fill="#707070"/>
<path id="Vector_361" d="M16.5 10.7998H16V11.2498H16.5V10.7998Z" fill="#707070"/>
<path id="Vector_362" d="M17.0039 10.7998H16.5039V11.2498H17.0039V10.7998Z" fill="#707070"/>
<path id="Vector_363" d="M17.5 10.7998H17V11.2498H17.5V10.7998Z" fill="#707070"/>
<path id="Vector_364" d="M18 10.7998H17.5V11.2498H18V10.7998Z" fill="#707070"/>
<path id="Vector_365" d="M0.5 11.25H0V11.7H0.5V11.25Z" fill="#707070"/>
<path id="Vector_366" d="M1 11.25H0.5V11.7H1V11.25Z" fill="#707070"/>
<path id="Vector_367" d="M1.5 11.25H1V11.7H1.5V11.25Z" fill="#707070"/>
<path id="Vector_368" d="M1.99609 11.25H1.49609V11.7H1.99609V11.25Z" fill="#707070"/>
<path id="Vector_369" d="M6.49609 11.25H5.99609V11.7H6.49609V11.25Z" fill="#707070"/>
<path id="Vector_370" d="M7 11.25H6.5V11.7H7V11.25Z" fill="#707070"/>
<path id="Vector_371" d="M7.5 11.25H7V11.7H7.5V11.25Z" fill="#707070"/>
<path id="Vector_372" d="M8.00391 11.25H7.50391V11.7H8.00391V11.25Z" fill="#707070"/>
<path id="Vector_373" d="M16.5 11.25H16V11.7H16.5V11.25Z" fill="#707070"/>
<path id="Vector_374" d="M17.0039 11.25H16.5039V11.7H17.0039V11.25Z" fill="#707070"/>
<path id="Vector_375" d="M17.5 11.25H17V11.7H17.5V11.25Z" fill="#707070"/>
<path id="Vector_376" d="M18 11.25H17.5V11.7H18V11.25Z" fill="#707070"/>
<path id="Vector_377" d="M0.5 11.7H0V12.15H0.5V11.7Z" fill="#707070"/>
<path id="Vector_378" d="M1 11.7002H0.5V12.1502H1V11.7002Z" fill="#707070"/>
<path id="Vector_379" d="M1.5 11.7002H1V12.1502H1.5V11.7002Z" fill="#707070"/>
<path id="Vector_380" d="M1.99609 11.7002H1.49609V12.1502H1.99609V11.7002Z" fill="#707070"/>
<path id="Vector_381" d="M6.49609 11.7002H5.99609V12.1502H6.49609V11.7002Z" fill="#707070"/>
<path id="Vector_382" d="M7 11.7002H6.5V12.1502H7V11.7002Z" fill="#707070"/>
<path id="Vector_383" d="M7.5 11.7002H7V12.1502H7.5V11.7002Z" fill="#707070"/>
<path id="Vector_384" d="M8.00391 11.7002H7.50391V12.1502H8.00391V11.7002Z" fill="#707070"/>
<path id="Vector_385" d="M16.5 11.7002H16V12.1502H16.5V11.7002Z" fill="#707070"/>
<path id="Vector_386" d="M17.0039 11.7002H16.5039V12.1502H17.0039V11.7002Z" fill="#707070"/>
<path id="Vector_387" d="M17.5 11.7002H17V12.1502H17.5V11.7002Z" fill="#707070"/>
<path id="Vector_388" d="M18 11.7002H17.5V12.1502H18V11.7002Z" fill="#707070"/>
<path id="Vector_389" d="M0.5 12.15H0V12.6H0.5V12.15Z" fill="#707070"/>
<path id="Vector_390" d="M1 12.1499H0.5V12.5999H1V12.1499Z" fill="#707070"/>
<path id="Vector_391" d="M1.5 12.1499H1V12.5999H1.5V12.1499Z" fill="#707070"/>
<path id="Vector_392" d="M1.99609 12.1499H1.49609V12.5999H1.99609V12.1499Z" fill="#707070"/>
<path id="Vector_393" d="M6.49609 12.1499H5.99609V12.5999H6.49609V12.1499Z" fill="#707070"/>
<path id="Vector_394" d="M7 12.1499H6.5V12.5999H7V12.1499Z" fill="#707070"/>
<path id="Vector_395" d="M7.5 12.1499H7V12.5999H7.5V12.1499Z" fill="#707070"/>
<path id="Vector_396" d="M8.00391 12.1499H7.50391V12.5999H8.00391V12.1499Z" fill="#707070"/>
<path id="Vector_397" d="M16.5 12.1499H16V12.5999H16.5V12.1499Z" fill="#707070"/>
<path id="Vector_398" d="M17.0039 12.1499H16.5039V12.5999H17.0039V12.1499Z" fill="#707070"/>
<path id="Vector_399" d="M17.5 12.1499H17V12.5999H17.5V12.1499Z" fill="#707070"/>
<path id="Vector_400" d="M18 12.1499H17.5V12.5999H18V12.1499Z" fill="#707070"/>
<path id="Vector_401" d="M0.5 12.6H0V13.05H0.5V12.6Z" fill="#707070"/>
<path id="Vector_402" d="M1 12.6001H0.5V13.0501H1V12.6001Z" fill="#707070"/>
<path id="Vector_403" d="M1.5 12.6001H1V13.0501H1.5V12.6001Z" fill="#707070"/>
<path id="Vector_404" d="M1.99609 12.6001H1.49609V13.0501H1.99609V12.6001Z" fill="#707070"/>
<path id="Vector_405" d="M2.5 12.6001H2V13.0501H2.5V12.6001Z" fill="#707070"/>
<path id="Vector_406" d="M3 12.6001H2.5V13.0501H3V12.6001Z" fill="#707070"/>
<path id="Vector_407" d="M3.50391 12.6001H3.00391V13.0501H3.50391V12.6001Z" fill="#707070"/>
<path id="Vector_408" d="M4 12.6001H3.5V13.0501H4V12.6001Z" fill="#707070"/>
<path id="Vector_409" d="M4.5 12.6001H4V13.0501H4.5V12.6001Z" fill="#707070"/>
<path id="Vector_410" d="M5 12.6H4.5V13.05H5V12.6Z" fill="#707070"/>
<path id="Vector_411" d="M5.5 12.6001H5V13.0501H5.5V12.6001Z" fill="#707070"/>
<path id="Vector_412" d="M6 12.6001H5.5V13.0501H6V12.6001Z" fill="#707070"/>
<path id="Vector_413" d="M6.49609 12.6001H5.99609V13.0501H6.49609V12.6001Z" fill="#707070"/>
<path id="Vector_414" d="M7 12.6001H6.5V13.0501H7V12.6001Z" fill="#707070"/>
<path id="Vector_415" d="M7.5 12.6001H7V13.0501H7.5V12.6001Z" fill="#707070"/>
<path id="Vector_416" d="M8.00391 12.6001H7.50391V13.0501H8.00391V12.6001Z" fill="#707070"/>
<path id="Vector_417" d="M16.5 12.6001H16V13.0501H16.5V12.6001Z" fill="#707070"/>
<path id="Vector_418" d="M17.0039 12.6001H16.5039V13.0501H17.0039V12.6001Z" fill="#707070"/>
<path id="Vector_419" d="M17.5 12.6001H17V13.0501H17.5V12.6001Z" fill="#707070"/>
<path id="Vector_420" d="M18 12.6001H17.5V13.0501H18V12.6001Z" fill="#707070"/>
<path id="Vector_421" d="M0.5 13.05H0V13.5H0.5V13.05Z" fill="#707070"/>
<path id="Vector_422" d="M1 13.0498H0.5V13.4998H1V13.0498Z" fill="#707070"/>
<path id="Vector_423" d="M1.5 13.0498H1V13.4998H1.5V13.0498Z" fill="#707070"/>
<path id="Vector_424" d="M1.99609 13.0498H1.49609V13.4998H1.99609V13.0498Z" fill="#707070"/>
<path id="Vector_425" d="M2.5 13.0498H2V13.4998H2.5V13.0498Z" fill="#707070"/>
<path id="Vector_426" d="M3 13.0498H2.5V13.4998H3V13.0498Z" fill="#707070"/>
<path id="Vector_427" d="M3.50391 13.0498H3.00391V13.4998H3.50391V13.0498Z" fill="#707070"/>
<path id="Vector_428" d="M4 13.0498H3.5V13.4998H4V13.0498Z" fill="#707070"/>
<path id="Vector_429" d="M4.5 13.0498H4V13.4998H4.5V13.0498Z" fill="#707070"/>
<path id="Vector_430" d="M5 13.05H4.5V13.5H5V13.05Z" fill="#707070"/>
<path id="Vector_431" d="M5.5 13.0498H5V13.4998H5.5V13.0498Z" fill="#707070"/>
<path id="Vector_432" d="M6 13.0498H5.5V13.4998H6V13.0498Z" fill="#707070"/>
<path id="Vector_433" d="M6.49609 13.0498H5.99609V13.4998H6.49609V13.0498Z" fill="#707070"/>
<path id="Vector_434" d="M7 13.0498H6.5V13.4998H7V13.0498Z" fill="#707070"/>
<path id="Vector_435" d="M7.5 13.0498H7V13.4998H7.5V13.0498Z" fill="#707070"/>
<path id="Vector_436" d="M8.00391 13.0498H7.50391V13.4998H8.00391V13.0498Z" fill="#707070"/>
<path id="Vector_437" d="M16.5 13.0498H16V13.4998H16.5V13.0498Z" fill="#707070"/>
<path id="Vector_438" d="M17.0039 13.0498H16.5039V13.4998H17.0039V13.0498Z" fill="#707070"/>
<path id="Vector_439" d="M17.5 13.0498H17V13.4998H17.5V13.0498Z" fill="#707070"/>
<path id="Vector_440" d="M18 13.0498H17.5V13.4998H18V13.0498Z" fill="#707070"/>
<path id="Vector_441" d="M0.5 13.5H0V13.95H0.5V13.5Z" fill="#707070"/>
<path id="Vector_442" d="M1 13.5H0.5V13.95H1V13.5Z" fill="#707070"/>
<path id="Vector_443" d="M1.5 13.5H1V13.95H1.5V13.5Z" fill="#707070"/>
<path id="Vector_444" d="M1.99609 13.5H1.49609V13.95H1.99609V13.5Z" fill="#707070"/>
<path id="Vector_445" d="M2.5 13.5H2V13.95H2.5V13.5Z" fill="#707070"/>
<path id="Vector_446" d="M3 13.5H2.5V13.95H3V13.5Z" fill="#707070"/>
<path id="Vector_447" d="M3.50391 13.5H3.00391V13.95H3.50391V13.5Z" fill="#707070"/>
<path id="Vector_448" d="M4 13.5H3.5V13.95H4V13.5Z" fill="#707070"/>
<path id="Vector_449" d="M4.5 13.5H4V13.95H4.5V13.5Z" fill="#707070"/>
<path id="Vector_450" d="M5 13.5H4.5V13.95H5V13.5Z" fill="#707070"/>
<path id="Vector_451" d="M5.5 13.5H5V13.95H5.5V13.5Z" fill="#707070"/>
<path id="Vector_452" d="M6 13.5H5.5V13.95H6V13.5Z" fill="#707070"/>
<path id="Vector_453" d="M6.49609 13.5H5.99609V13.95H6.49609V13.5Z" fill="#707070"/>
<path id="Vector_454" d="M7 13.5H6.5V13.95H7V13.5Z" fill="#707070"/>
<path id="Vector_455" d="M7.5 13.5H7V13.95H7.5V13.5Z" fill="#707070"/>
<path id="Vector_456" d="M8.00391 13.5H7.50391V13.95H8.00391V13.5Z" fill="#707070"/>
<path id="Vector_457" d="M16.5 13.5H16V13.95H16.5V13.5Z" fill="#707070"/>
<path id="Vector_458" d="M17.0039 13.5H16.5039V13.95H17.0039V13.5Z" fill="#707070"/>
<path id="Vector_459" d="M17.5 13.5H17V13.95H17.5V13.5Z" fill="#707070"/>
<path id="Vector_460" d="M18 13.5H17.5V13.95H18V13.5Z" fill="#707070"/>
<path id="Vector_461" d="M0.5 13.95H0V14.4H0.5V13.95Z" fill="#707070"/>
<path id="Vector_462" d="M1 13.9502H0.5V14.4002H1V13.9502Z" fill="#707070"/>
<path id="Vector_463" d="M1.5 13.9502H1V14.4002H1.5V13.9502Z" fill="#707070"/>
<path id="Vector_464" d="M1.99609 13.9502H1.49609V14.4002H1.99609V13.9502Z" fill="#707070"/>
<path id="Vector_465" d="M2.5 13.9502H2V14.4002H2.5V13.9502Z" fill="#707070"/>
<path id="Vector_466" d="M3 13.9502H2.5V14.4002H3V13.9502Z" fill="#707070"/>
<path id="Vector_467" d="M3.50391 13.9502H3.00391V14.4002H3.50391V13.9502Z" fill="#707070"/>
<path id="Vector_468" d="M4 13.9502H3.5V14.4002H4V13.9502Z" fill="#707070"/>
<path id="Vector_469" d="M4.5 13.9502H4V14.4002H4.5V13.9502Z" fill="#707070"/>
<path id="Vector_470" d="M5 13.95H4.5V14.4H5V13.95Z" fill="#707070"/>
<path id="Vector_471" d="M5.5 13.9502H5V14.4002H5.5V13.9502Z" fill="#707070"/>
<path id="Vector_472" d="M6 13.9502H5.5V14.4002H6V13.9502Z" fill="#707070"/>
<path id="Vector_473" d="M6.49609 13.9502H5.99609V14.4002H6.49609V13.9502Z" fill="#707070"/>
<path id="Vector_474" d="M7 13.9502H6.5V14.4002H7V13.9502Z" fill="#707070"/>
<path id="Vector_475" d="M7.5 13.9502H7V14.4002H7.5V13.9502Z" fill="#707070"/>
<path id="Vector_476" d="M8.00391 13.9502H7.50391V14.4002H8.00391V13.9502Z" fill="#707070"/>
<path id="Vector_477" d="M16.5 13.9502H16V14.4002H16.5V13.9502Z" fill="#707070"/>
<path id="Vector_478" d="M17.0039 13.9502H16.5039V14.4002H17.0039V13.9502Z" fill="#707070"/>
<path id="Vector_479" d="M17.5 13.9502H17V14.4002H17.5V13.9502Z" fill="#707070"/>
<path id="Vector_480" d="M18 13.9502H17.5V14.4002H18V13.9502Z" fill="#707070"/>
<path id="Vector_481" d="M6.49609 14.3999H5.99609V14.8499H6.49609V14.3999Z" fill="#707070"/>
<path id="Vector_482" d="M7 14.3999H6.5V14.8499H7V14.3999Z" fill="#707070"/>
<path id="Vector_483" d="M7.5 14.3999H7V14.8499H7.5V14.3999Z" fill="#707070"/>
<path id="Vector_484" d="M8.00391 14.3999H7.50391V14.8499H8.00391V14.3999Z" fill="#707070"/>
<path id="Vector_485" d="M16.5 14.3999H16V14.8499H16.5V14.3999Z" fill="#707070"/>
<path id="Vector_486" d="M17.0039 14.3999H16.5039V14.8499H17.0039V14.3999Z" fill="#707070"/>
<path id="Vector_487" d="M17.5 14.3999H17V14.8499H17.5V14.3999Z" fill="#707070"/>
<path id="Vector_488" d="M18 14.3999H17.5V14.8499H18V14.3999Z" fill="#707070"/>
<path id="Vector_489" d="M6.49609 14.8501H5.99609V15.3001H6.49609V14.8501Z" fill="#707070"/>
<path id="Vector_490" d="M7 14.8501H6.5V15.3001H7V14.8501Z" fill="#707070"/>
<path id="Vector_491" d="M7.5 14.8501H7V15.3001H7.5V14.8501Z" fill="#707070"/>
<path id="Vector_492" d="M8.00391 14.8501H7.50391V15.3001H8.00391V14.8501Z" fill="#707070"/>
<path id="Vector_493" d="M16.5 14.8501H16V15.3001H16.5V14.8501Z" fill="#707070"/>
<path id="Vector_494" d="M17.0039 14.8501H16.5039V15.3001H17.0039V14.8501Z" fill="#707070"/>
<path id="Vector_495" d="M17.5 14.8501H17V15.3001H17.5V14.8501Z" fill="#707070"/>
<path id="Vector_496" d="M18 14.8501H17.5V15.3001H18V14.8501Z" fill="#707070"/>
<path id="Vector_497" d="M6.49609 15.2998H5.99609V15.7498H6.49609V15.2998Z" fill="#707070"/>
<path id="Vector_498" d="M7 15.2998H6.5V15.7498H7V15.2998Z" fill="#707070"/>
<path id="Vector_499" d="M7.5 15.2998H7V15.7498H7.5V15.2998Z" fill="#707070"/>
<path id="Vector_500" d="M8.00391 15.2998H7.50391V15.7498H8.00391V15.2998Z" fill="#707070"/>
<path id="Vector_501" d="M16.5 15.2998H16V15.7498H16.5V15.2998Z" fill="#707070"/>
<path id="Vector_502" d="M17.0039 15.2998H16.5039V15.7498H17.0039V15.2998Z" fill="#707070"/>
<path id="Vector_503" d="M17.5 15.2998H17V15.7498H17.5V15.2998Z" fill="#707070"/>
<path id="Vector_504" d="M18 15.2998H17.5V15.7498H18V15.2998Z" fill="#707070"/>
<path id="Vector_505" d="M6.49609 15.75H5.99609V16.2H6.49609V15.75Z" fill="#707070"/>
<path id="Vector_506" d="M7 15.75H6.5V16.2H7V15.75Z" fill="#707070"/>
<path id="Vector_507" d="M7.5 15.75H7V16.2H7.5V15.75Z" fill="#707070"/>
<path id="Vector_508" d="M8.00391 15.75H7.50391V16.2H8.00391V15.75Z" fill="#707070"/>
<path id="Vector_509" d="M16.5 15.75H16V16.2H16.5V15.75Z" fill="#707070"/>
<path id="Vector_510" d="M17.0039 15.75H16.5039V16.2H17.0039V15.75Z" fill="#707070"/>
<path id="Vector_511" d="M17.5 15.75H17V16.2H17.5V15.75Z" fill="#707070"/>
<path id="Vector_512" d="M18 15.75H17.5V16.2H18V15.75Z" fill="#707070"/>
<path id="Vector_513" d="M6.49609 16.2002H5.99609V16.6502H6.49609V16.2002Z" fill="#707070"/>
<path id="Vector_514" d="M7 16.2002H6.5V16.6502H7V16.2002Z" fill="#707070"/>
<path id="Vector_515" d="M7.5 16.2002H7V16.6502H7.5V16.2002Z" fill="#707070"/>
<path id="Vector_516" d="M8.00391 16.2002H7.50391V16.6502H8.00391V16.2002Z" fill="#707070"/>
<path id="Vector_517" d="M8.5 16.2002H8V16.6502H8.5V16.2002Z" fill="#707070"/>
<path id="Vector_518" d="M9 16.2002H8.5V16.6502H9V16.2002Z" fill="#707070"/>
<path id="Vector_519" d="M9.5 16.2H9V16.65H9.5V16.2Z" fill="#707070"/>
<path id="Vector_520" d="M10 16.2002H9.5V16.6502H10V16.2002Z" fill="#707070"/>
<path id="Vector_521" d="M10.5 16.2002H10V16.6502H10.5V16.2002Z" fill="#707070"/>
<path id="Vector_522" d="M10.9961 16.2002H10.4961V16.6502H10.9961V16.2002Z" fill="#707070"/>
<path id="Vector_523" d="M11.5 16.2002H11V16.6502H11.5V16.2002Z" fill="#707070"/>
<path id="Vector_524" d="M12 16.2002H11.5V16.6502H12V16.2002Z" fill="#707070"/>
<path id="Vector_525" d="M12.5039 16.2002H12.0039V16.6502H12.5039V16.2002Z" fill="#707070"/>
<path id="Vector_526" d="M13 16.2002H12.5V16.6502H13V16.2002Z" fill="#707070"/>
<path id="Vector_527" d="M13.5 16.2002H13V16.6502H13.5V16.2002Z" fill="#707070"/>
<path id="Vector_528" d="M14 16.2H13.5V16.65H14V16.2Z" fill="#707070"/>
<path id="Vector_529" d="M14.5 16.2002H14V16.6502H14.5V16.2002Z" fill="#707070"/>
<path id="Vector_530" d="M15 16.2002H14.5V16.6502H15V16.2002Z" fill="#707070"/>
<path id="Vector_531" d="M15.4961 16.2002H14.9961V16.6502H15.4961V16.2002Z" fill="#707070"/>
<path id="Vector_532" d="M16 16.2002H15.5V16.6502H16V16.2002Z" fill="#707070"/>
<path id="Vector_533" d="M16.5 16.2002H16V16.6502H16.5V16.2002Z" fill="#707070"/>
<path id="Vector_534" d="M17.0039 16.2002H16.5039V16.6502H17.0039V16.2002Z" fill="#707070"/>
<path id="Vector_535" d="M17.5 16.2002H17V16.6502H17.5V16.2002Z" fill="#707070"/>
<path id="Vector_536" d="M18 16.2002H17.5V16.6502H18V16.2002Z" fill="#707070"/>
<path id="Vector_537" d="M6.49609 16.6499H5.99609V17.0999H6.49609V16.6499Z" fill="#707070"/>
<path id="Vector_538" d="M7 16.6499H6.5V17.0999H7V16.6499Z" fill="#707070"/>
<path id="Vector_539" d="M7.5 16.6499H7V17.0999H7.5V16.6499Z" fill="#707070"/>
<path id="Vector_540" d="M8.00391 16.6499H7.50391V17.0999H8.00391V16.6499Z" fill="#707070"/>
<path id="Vector_541" d="M8.5 16.6499H8V17.0999H8.5V16.6499Z" fill="#707070"/>
<path id="Vector_542" d="M9 16.6499H8.5V17.0999H9V16.6499Z" fill="#707070"/>
<path id="Vector_543" d="M9.5 16.65H9V17.1H9.5V16.65Z" fill="#707070"/>
<path id="Vector_544" d="M10 16.6499H9.5V17.0999H10V16.6499Z" fill="#707070"/>
<path id="Vector_545" d="M10.5 16.6499H10V17.0999H10.5V16.6499Z" fill="#707070"/>
<path id="Vector_546" d="M10.9961 16.6499H10.4961V17.0999H10.9961V16.6499Z" fill="#707070"/>
<path id="Vector_547" d="M11.5 16.6499H11V17.0999H11.5V16.6499Z" fill="#707070"/>
<path id="Vector_548" d="M12 16.6499H11.5V17.0999H12V16.6499Z" fill="#707070"/>
<path id="Vector_549" d="M12.5039 16.6499H12.0039V17.0999H12.5039V16.6499Z" fill="#707070"/>
<path id="Vector_550" d="M13 16.6499H12.5V17.0999H13V16.6499Z" fill="#707070"/>
<path id="Vector_551" d="M13.5 16.6499H13V17.0999H13.5V16.6499Z" fill="#707070"/>
<path id="Vector_552" d="M14 16.65H13.5V17.1H14V16.65Z" fill="#707070"/>
<path id="Vector_553" d="M14.5 16.6499H14V17.0999H14.5V16.6499Z" fill="#707070"/>
<path id="Vector_554" d="M15 16.6499H14.5V17.0999H15V16.6499Z" fill="#707070"/>
<path id="Vector_555" d="M15.4961 16.6499H14.9961V17.0999H15.4961V16.6499Z" fill="#707070"/>
<path id="Vector_556" d="M16 16.6499H15.5V17.0999H16V16.6499Z" fill="#707070"/>
<path id="Vector_557" d="M16.5 16.6499H16V17.0999H16.5V16.6499Z" fill="#707070"/>
<path id="Vector_558" d="M17.0039 16.6499H16.5039V17.0999H17.0039V16.6499Z" fill="#707070"/>
<path id="Vector_559" d="M17.5 16.6499H17V17.0999H17.5V16.6499Z" fill="#707070"/>
<path id="Vector_560" d="M18 16.6499H17.5V17.0999H18V16.6499Z" fill="#707070"/>
<path id="Vector_561" d="M6.49609 17.1001H5.99609V17.5501H6.49609V17.1001Z" fill="#707070"/>
<path id="Vector_562" d="M7 17.1001H6.5V17.5501H7V17.1001Z" fill="#707070"/>
<path id="Vector_563" d="M7.5 17.1001H7V17.5501H7.5V17.1001Z" fill="#707070"/>
<path id="Vector_564" d="M8.00391 17.1001H7.50391V17.5501H8.00391V17.1001Z" fill="#707070"/>
<path id="Vector_565" d="M8.5 17.1001H8V17.5501H8.5V17.1001Z" fill="#707070"/>
<path id="Vector_566" d="M9 17.1001H8.5V17.5501H9V17.1001Z" fill="#707070"/>
<path id="Vector_567" d="M9.5 17.1H9V17.55H9.5V17.1Z" fill="#707070"/>
<path id="Vector_568" d="M10 17.1001H9.5V17.5501H10V17.1001Z" fill="#707070"/>
<path id="Vector_569" d="M10.5 17.1001H10V17.5501H10.5V17.1001Z" fill="#707070"/>
<path id="Vector_570" d="M10.9961 17.1001H10.4961V17.5501H10.9961V17.1001Z" fill="#707070"/>
<path id="Vector_571" d="M11.5 17.1001H11V17.5501H11.5V17.1001Z" fill="#707070"/>
<path id="Vector_572" d="M12 17.1001H11.5V17.5501H12V17.1001Z" fill="#707070"/>
<path id="Vector_573" d="M12.5039 17.1001H12.0039V17.5501H12.5039V17.1001Z" fill="#707070"/>
<path id="Vector_574" d="M13 17.1001H12.5V17.5501H13V17.1001Z" fill="#707070"/>
<path id="Vector_575" d="M13.5 17.1001H13V17.5501H13.5V17.1001Z" fill="#707070"/>
<path id="Vector_576" d="M14 17.1H13.5V17.55H14V17.1Z" fill="#707070"/>
<path id="Vector_577" d="M14.5 17.1001H14V17.5501H14.5V17.1001Z" fill="#707070"/>
<path id="Vector_578" d="M15 17.1001H14.5V17.5501H15V17.1001Z" fill="#707070"/>
<path id="Vector_579" d="M15.4961 17.1001H14.9961V17.5501H15.4961V17.1001Z" fill="#707070"/>
<path id="Vector_580" d="M16 17.1001H15.5V17.5501H16V17.1001Z" fill="#707070"/>
<path id="Vector_581" d="M16.5 17.1001H16V17.5501H16.5V17.1001Z" fill="#707070"/>
<path id="Vector_582" d="M17.0039 17.1001H16.5039V17.5501H17.0039V17.1001Z" fill="#707070"/>
<path id="Vector_583" d="M17.5 17.1001H17V17.5501H17.5V17.1001Z" fill="#707070"/>
<path id="Vector_584" d="M18 17.1001H17.5V17.5501H18V17.1001Z" fill="#707070"/>
<path id="Vector_585" d="M6.49609 17.5498H5.99609V17.9998H6.49609V17.5498Z" fill="#707070"/>
<path id="Vector_586" d="M7 17.5498H6.5V17.9998H7V17.5498Z" fill="#707070"/>
<path id="Vector_587" d="M7.5 17.5498H7V17.9998H7.5V17.5498Z" fill="#707070"/>
<path id="Vector_588" d="M8.00391 17.5498H7.50391V17.9998H8.00391V17.5498Z" fill="#707070"/>
<path id="Vector_589" d="M8.5 17.5498H8V17.9998H8.5V17.5498Z" fill="#707070"/>
<path id="Vector_590" d="M9 17.5498H8.5V17.9998H9V17.5498Z" fill="#707070"/>
<path id="Vector_591" d="M9.5 17.55H9V18H9.5V17.55Z" fill="#707070"/>
<path id="Vector_592" d="M10 17.5498H9.5V17.9998H10V17.5498Z" fill="#707070"/>
<path id="Vector_593" d="M10.5 17.5498H10V17.9998H10.5V17.5498Z" fill="#707070"/>
<path id="Vector_594" d="M10.9961 17.5498H10.4961V17.9998H10.9961V17.5498Z" fill="#707070"/>
<path id="Vector_595" d="M11.5 17.5498H11V17.9998H11.5V17.5498Z" fill="#707070"/>
<path id="Vector_596" d="M12 17.5498H11.5V17.9998H12V17.5498Z" fill="#707070"/>
<path id="Vector_597" d="M12.5039 17.5498H12.0039V17.9998H12.5039V17.5498Z" fill="#707070"/>
<path id="Vector_598" d="M13 17.5498H12.5V17.9998H13V17.5498Z" fill="#707070"/>
<path id="Vector_599" d="M13.5 17.5498H13V17.9998H13.5V17.5498Z" fill="#707070"/>
<path id="Vector_600" d="M14 17.55H13.5V18H14V17.55Z" fill="#707070"/>
<path id="Vector_601" d="M14.5 17.5498H14V17.9998H14.5V17.5498Z" fill="#707070"/>
<path id="Vector_602" d="M15 17.5498H14.5V17.9998H15V17.5498Z" fill="#707070"/>
<path id="Vector_603" d="M15.4961 17.5498H14.9961V17.9998H15.4961V17.5498Z" fill="#707070"/>
<path id="Vector_604" d="M16 17.5498H15.5V17.9998H16V17.5498Z" fill="#707070"/>
<path id="Vector_605" d="M16.5 17.5498H16V17.9998H16.5V17.5498Z" fill="#707070"/>
<path id="Vector_606" d="M17.0039 17.5498H16.5039V17.9998H17.0039V17.5498Z" fill="#707070"/>
<path id="Vector_607" d="M17.5 17.5498H17V17.9998H17.5V17.5498Z" fill="#707070"/>
<path id="Vector_608" d="M18 17.5498H17.5V17.9998H18V17.5498Z" fill="#707070"/>
</g>
<defs>
<clipPath id="clip0_796_3422">
<rect width="18" height="18" fill="white"/>
</clipPath>
</defs>
</svg>
