<svg width="840" height="60" viewBox="0 0 840 60" fill="none" xmlns="http://www.w3.org/2000/svg" preserveAspectRatio="none">
<mask id="path-1-inside-1_796_6283" fill="white">
<path fill-rule="evenodd" clip-rule="evenodd" d="M6 60C2.68629 60 0 57.3137 0 54V25.8481C0 23.8905 0.954977 22.056 2.55854 20.9332L30.9046 1.08509C31.9132 0.378833 33.1147 0 34.3461 0H834C837.314 0 840 2.68629 840 6V33.6232C840 35.5808 839.045 37.4153 837.441 38.5381L808.34 58.9149C807.332 59.6212 806.13 60 804.899 60H6ZM839.311 59.2031C838.96 59.4488 839.134 60 839.562 60C839.804 60 840 59.8039 840 59.562C840 59.2076 839.601 58.9999 839.311 59.2031ZM0 0.25703C0 0.115076 0.115076 0 0.25703 0C0.508314 0 0.610296 0.323447 0.404457 0.467577C0.234106 0.586858 0 0.46499 0 0.25703Z"/>
</mask>
<path d="M808.34 58.9149L808.914 59.7341L808.34 58.9149ZM837.441 38.5381L838.015 39.3572L837.441 38.5381ZM30.9046 1.08509L30.331 0.265936L30.9046 1.08509ZM2.55854 20.9332L1.98496 20.1141L2.55854 20.9332ZM-1 25.8481V54H1V25.8481H-1ZM30.331 0.265936L1.98496 20.1141L3.13211 21.7524L31.4782 1.90424L30.331 0.265936ZM834 -1H34.3461V1H834V-1ZM841 33.6232V6H839V33.6232H841ZM808.914 59.7341L838.015 39.3572L836.868 37.7189L807.767 58.0958L808.914 59.7341ZM6 61H804.899V59H6V61ZM-0.169119 -0.351575C0.323294 -0.696367 1 -0.344097 1 0.25703H-1C-1 1.27408 0.144918 1.87008 0.978033 1.28673L-0.169119 -0.351575ZM0.25703 -1C-0.437209 -1 -1 -0.437208 -1 0.25703H1C1 0.667361 0.667361 1 0.25703 1V-1ZM0.25703 1C-0.469326 1 -0.764117 0.0650468 -0.169119 -0.351575L0.978033 1.28673C1.98471 0.581847 1.48595 -1 0.25703 -1V1ZM841 59.562C841 58.3985 839.69 57.7166 838.737 58.384L839.884 60.0223C839.512 60.2831 839 60.0166 839 59.562H841ZM839.562 61C840.356 61 841 60.3562 841 59.562H839C839 59.2516 839.252 59 839.562 59V61ZM839.562 59C840.111 59 840.334 59.7072 839.884 60.0223L838.737 58.384C837.586 59.1904 838.156 61 839.562 61V59ZM807.767 58.0958C806.926 58.6843 805.925 59 804.899 59V61C806.335 61 807.737 60.558 808.914 59.7341L807.767 58.0958ZM839 33.6232C839 35.2545 838.204 36.7832 836.868 37.7189L838.015 39.3572C839.886 38.0473 841 35.907 841 33.6232H839ZM834 1C836.761 1 839 3.23858 839 6H841C841 2.13401 837.866 -1 834 -1V1ZM31.4782 1.90424C32.3187 1.31569 33.32 1 34.3461 1V-1C32.9095 -1 31.5078 -0.558028 30.331 0.265936L31.4782 1.90424ZM-1 54C-1 57.866 2.13401 61 6 61V59C3.23858 59 1 56.7614 1 54H-1ZM1 25.8481C1 24.2168 1.79581 22.6881 3.13211 21.7524L1.98496 20.1141C0.114139 21.424 -1 23.5643 -1 25.8481H1Z" fill="#404040" mask="url(#path-1-inside-1_796_6283)"/>
</svg>
